<svg xmlns="http://www.w3.org/2000/svg" width="31.968" height="31.97" viewBox="0 0 31.968 31.97">
  <defs>
    <style>
      .cls-1 {
        fill: #e47e1e;
        fill-rule: evenodd;
      }
    </style>
  </defs>
  <path id="_02.svg" data-name="02.svg" class="cls-1" d="M390.055,3146.96c2.8,0,4.994-3.19,4.994-7.28,0-3.57-1.867-5.71-4.994-5.71s-5,2.14-5,5.71C385.06,3143.77,387.254,3146.96,390.055,3146.96Zm0-10.99c2.016,0,3,1.22,3,3.71,0,2.87-1.372,5.28-3,5.28s-3-2.41-3-5.28C387.058,3137.19,388.038,3135.97,390.055,3135.97Zm11.487,4c2.52,0,4.5-2.7,4.5-6.14,0-3.04-1.681-4.85-4.5-4.85s-4.495,1.81-4.495,4.85C397.047,3137.27,399.021,3139.97,401.542,3139.97Zm0-8.99c1.7,0,2.5.9,2.5,2.85,0,2.25-1.143,4.14-2.5,4.14s-2.5-1.89-2.5-4.14C399.045,3131.88,399.838,3130.98,401.542,3130.98Zm7.575,11.47a2.064,2.064,0,0,0-1.5-.66h-0.395a1.36,1.36,0,0,1-1.431-.48,0.988,0.988,0,0,0-1.409-.09,1,1,0,0,0-.093,1.41,3.282,3.282,0,0,0,2.966,1.16l0.357-.01c0.636,0.22,1.343,3.32,1.419,7.18h-2.992v-4a1,1,0,1,0-2,0v4H399.69a4.479,4.479,0,0,0-.812-1.24,2.409,2.409,0,0,0-1.735-.76h-0.295c-1.111.01-1.474,0.01-2.04-.65a1,1,0,1,0-1.515,1.3,3.892,3.892,0,0,0,3.565,1.35h0.285a0.421,0.421,0,0,1,.315.17c1.073,1.08,1.513,5.02,1.579,7.82h-2.989v-3.99a1,1,0,1,0-2,0v3.99H386.06v-3.99a1,1,0,1,0-2,0v3.99h-2.988c0.069-2.92.556-6.79,1.579-7.82a0.419,0.419,0,0,1,.314-0.17h0.285a3.935,3.935,0,0,0,3.566-1.35,1,1,0,1,0-1.516-1.3c-0.565.66-.941,0.66-2.039,0.65h-0.3a2.4,2.4,0,0,0-1.733.76c-2.137,2.16-2.179,8.91-2.166,10.24a1,1,0,0,0,1,.99h19.976a1,1,0,0,0,1-.99c0-.02,0-0.04,0-0.06v-0.45a31.019,31.019,0,0,0-.675-6.49h9.663a1,1,0,0,0,1-.99C411.042,3150.71,411,3144.35,409.117,3142.45Z" transform="translate(-379.063 -3128.97)"/>
</svg>
