<svg xmlns="http://www.w3.org/2000/svg" width="35.032" height="33.5" viewBox="0 0 35.032 33.5">
  <defs>
    <style>
      .cls-1 {
        fill: #e47e1e;
        fill-rule: evenodd;
      }
    </style>
  </defs>
  <path id="_03.svg" data-name="03.svg" class="cls-1" d="M408.54,3338.95h-7v-2.99a1,1,0,0,0-1-1H386.552a0.994,0.994,0,0,0-1,1v2.99h-7a1,1,0,0,0-1,1v15.99a1,1,0,0,0,1,1H408.54a1,1,0,0,0,1-1v-15.99A1,1,0,0,0,408.54,3338.95Zm-28.984,2h6v13.99h-6v-13.99Zm17.99,9.99a1,1,0,0,0-1,1v3h-6v-3a1,1,0,1,0-2,0v3h-1v-17.99h11.993v17.99h-1v-3A1,1,0,0,0,397.546,3350.94Zm10,4h-6v-13.99h6v13.99Zm-18.99-9.99h2v-2h-2v2Zm-7,0h2v-2h-2v2Zm0,3.99h2v-1.99h-2v1.99Zm0,4h2v-2h-2v2Zm23.987-9.99h-2v2h2v-2Zm0,4h-2v1.99h2v-1.99Zm0,3.99h-2v2h2v-2Zm-12.993-5.99h2v-2h-2v2Zm6-2h-2v2h2v-2Zm-10,5.99h2v-1.99h-2v1.99Zm4,0h2v-1.99h-2v1.99Zm0,4h2v-2h-2v2Zm6-5.99h-2v1.99h2v-1.99Zm-10-6h2v-2h-2v2Zm4,0h2v-2h-2v2Zm6-2h-2v2h2v-2Zm-18-8.5a1,1,0,0,0,1-1v-1a1,1,0,0,0-2,0v1A1,1,0,0,0,380.547,3330.45Zm0,2a1,1,0,0,0-1,1v1a1,1,0,0,0,2,0v-1A1,1,0,0,0,380.547,3332.45Zm3-2h-1a1,1,0,0,0,0,2h1A1,1,0,0,0,383.547,3330.45Zm-5,0h-1a1,1,0,0,0,0,2h1A1,1,0,0,0,378.547,3330.45Zm11-4a1,1,0,0,0,1-1v-1a1,1,0,0,0-2,0v1A1,1,0,0,0,389.548,3326.45Zm0,2a1,1,0,0,0-1,1v1a1,1,0,0,0,2,0v-1A1,1,0,0,0,389.548,3328.45Zm3-2h-1a1,1,0,1,0,0,2h1A1,1,0,0,0,392.548,3326.45Zm-5,0h-1a1,1,0,1,0,0,2h1A1,1,0,0,0,387.548,3326.45Zm12,0a1,1,0,0,0,1-1v-1a1,1,0,0,0-2,0v1A1,1,0,0,0,399.549,3326.45Zm0,2a1,1,0,0,0-1,1v1a1,1,0,0,0,2,0v-1A1,1,0,0,0,399.549,3328.45Zm3-2h-1a1,1,0,0,0,0,2h1A1,1,0,0,0,402.549,3326.45Zm-5,0h-1a1,1,0,1,0,0,2h1A1,1,0,1,0,397.548,3326.45Zm10,5a1,1,0,0,0,1-1v-1a1,1,0,0,0-2,0v1A1,1,0,0,0,407.549,3331.45Zm0,2a1,1,0,0,0-1,1v1a1,1,0,0,0,2,0v-1A1,1,0,0,0,407.549,3333.45Zm3-2h-1a1,1,0,0,0,0,2h1A1,1,0,1,0,410.55,3331.45Zm-5,0h-1a1,1,0,0,0,0,2h1A1,1,0,0,0,405.549,3331.45Z" transform="translate(-376.531 -3323.44)"/>
</svg>
