<svg xmlns="http://www.w3.org/2000/svg" width="144.406" height="374.97" viewBox="0 0 144.406 374.97">
  <defs>
    <style>
      .cls-1 {
        fill: #231f1c;
        fill-rule: evenodd;
        opacity: 0.05;
      }
    </style>
  </defs>
  <path id="Duo.svg" class="cls-1" d="M264.122,8227.5q0,6.99.4,23.4l0.2,8v6.19q0,15.81-.6,24.2h4a34.835,34.835,0,0,1,1.6-9.7,6.954,6.954,0,0,1,4.6-4.2q3.4-1.095,11-1.1h99.213q7.6,0,11,1.1a6.948,6.948,0,0,1,4.6,4.2,34.686,34.686,0,0,1,1.6,9.7h4q-0.6-10.2-.6-30.79,0-5.2.4-16.8l0.2-12.4q0-24.795-9-42.7a64.228,64.228,0,0,0-25.3-27.4q-16.3-9.495-38.1-9.5-33.8,0-51.506,19.4t-17.7,58.4h0Zm3.6,0.2q0-23.805,16.1-34.3t50.306-10.5q34.2,0,51.107,10.2t16.9,34.4q0,6.39-1.4,9.5a7.928,7.928,0,0,1-5,4.3q-3.6,1.2-10.8,1.2H284.925q-7.2,0-10.8-1.2a7.935,7.935,0,0,1-5-4.3q-1.4-3.1-1.4-9.3h0Zm32.4-191.2q2.8,11.805,2.8,29.2,0,6-.6,12.4h4.2q0-6.99,4.2-9.9t13.4-2.9h52.407a24.589,24.589,0,0,1,16.5,5.7q6.7,5.7,6.7,13.7,0,7.005-4.2,9.5t-12.6,2.5H300.127q2.8,11.8,2.8,29.2,0,6.21-.6,12.4h4.2q0-6.99,4.2-9.9,4.2-2.895,13.4-2.9h50.607a69.757,69.757,0,0,0,16.1-1.5,23.936,23.936,0,0,0,9.9-4.7q7.8-6.795,7.8-21.8,0-22.995-18.6-32.2h18q-2.8-11.79-2.8-29.2,0-6.195.6-12.4h-4.2q0,7.005-4.2,9.9t-13.4,2.9H300.127Zm-0.6-73.19q0,22.8,13.1,35.9t41.505,13.1q28.406,0,41.4-13.1t13-35.9q0-23-13-36t-41.4-13q-28.4,0-41.5,13t-13.1,36h0Zm4,0q0-8.6,12.4-13.7t38.205-5.1q25.8,0,38.1,5t12.3,13.8q0,8.595-12.4,13.7t-38,5.1q-25.6,0-38.105-5.1t-12.5-13.7h0Z" transform="translate(-264.125 -7914.31)"/>
</svg>
