<svg xmlns="http://www.w3.org/2000/svg" width="139.35" height="561.96" viewBox="0 0 139.35 561.96">
  <defs>
    <style>
      .cls-1 {
        fill: #231f1c;
        fill-rule: evenodd;
        opacity: 0.05;
      }
    </style>
  </defs>
  <path id="Fikrlar.svg" class="cls-1" d="M1472.83,5132.26q0.525,10.935.53,36.85,0,38.445-.53,57.49h3.53a30.376,30.376,0,0,1,1.41-8.56,6.108,6.108,0,0,1,4.05-3.7,34.948,34.948,0,0,1,9.7-.97H1579c4.47,0,7.7.33,9.7,0.97a6.124,6.124,0,0,1,4.06,3.7,31.126,31.126,0,0,1,1.41,8.56h3.52l-0.17-5.65q-0.36-13.395-.35-22.21,0-10.59.52-32.27h-3.88q-0.165,8.28-1.23,12.08a7.793,7.793,0,0,1-4.32,5.29c-2.18,1-5.61,1.49-10.32,1.49h-40.56v-6.17q0-17.805,23.28-21.51v-4.06q-16.05,1.065-25.05,1.06h-8.46q-9.165,0-16.58-.53v4.06a42.931,42.931,0,0,1,16.4,6.79q6.885,4.845,6.88,14.19v6.17h-44.44a27.358,27.358,0,0,1-8.2-.88,5.255,5.255,0,0,1-3.44-3.35,25.6,25.6,0,0,1-.88-7.93v-5.82q0-12.7,8.11-19.75t28.04-10.58v-4.06a133.517,133.517,0,0,1-13.4.53q-11.82,0-26.81-1.23h0Zm-11.82-32.8q0,7.41,3.62,11.73a13.653,13.653,0,0,0,19.93,0q3.615-4.32,3.61-11.73c0-4.94-1.2-8.84-3.61-11.73a13.653,13.653,0,0,0-19.93,0c-2.41,2.89-3.62,6.79-3.62,11.73h0Zm43.57-12.17q2.46,10.05,2.46,25.75,0,5.295-.52,10.93h3.7q0-6.345,3.7-8.82,3.7-2.46,11.82-2.46h55.55q7.245,0,9.97,2.46,2.73,2.475,2.73,8.82h3.7q-0.69-19.05-.7-24.51,0-5.82.7-23.45h-3.7q0,6.165-2.73,8.73-2.73,2.55-9.97,2.55h-76.71Zm80.24-108.44-49.56,29.62-11.64-11.28q-11.28-11.64-13.58-22.04h-3.52q0.525,6,.52,20.63,0,10.935-.52,20.63h3.52a20.319,20.319,0,0,1,2.74-9.88,7.318,7.318,0,0,1,6.43-3.7q4.95,0,10.76,5.82l13.05,13.4a12.761,12.761,0,0,1,3.18,4.5,21.849,21.849,0,0,1,1.41,6.08H1459.6q2.475,10.41,2.47,25.75c0,3.52-.17,7.17-0.53,10.93h3.71q0-6.165,3.7-8.73,3.705-2.55,11.82-2.56h100.52q7.245,0,9.97,2.56t2.73,8.73h3.7q-0.69-18.345-.7-24.33,0-5.3.7-22.93h-3.7q0,6-2.73,8.29t-9.97,2.29h-30.33a13.7,13.7,0,0,1,1.41-4.94,10.541,10.541,0,0,1,4.06-3.7l31.56-17.46a6.92,6.92,0,0,1,2.65-.88,2.766,2.766,0,0,1,2.47,1.41,7.311,7.311,0,0,1,.88,3.88h3.7q-0.69-16.92-.7-22.74,0-4.41.7-18.52h-3.7a9.868,9.868,0,0,1-2.91,4.59,66.407,66.407,0,0,1-6.26,4.58h0Zm-80.77-74.23a23.518,23.518,0,0,0,4.67,14.28,29.983,29.983,0,0,0,12.26,9.7h-16.4q2.46,10.05,2.46,25.74,0,5.3-.52,10.93h3.7q0-6.345,3.7-8.81t11.82-2.47h55.55q7.245,0,9.97,2.47t2.73,8.81h3.7a28.789,28.789,0,0,0-.17-3.52q-0.525-16.935-.53-21.69,0-6,.53-23.98a37.655,37.655,0,0,0,.17-4.06h-3.7q0,8.64-3.17,12.61t-11.29,3.97h-46.74a25.872,25.872,0,0,1-14.46-4.68q-7.05-4.665-8.11-11.37a9.028,9.028,0,0,1-.35-2.82,10,10,0,0,1,.17-2.12q5.3,7.77,13.76,7.76a10.335,10.335,0,0,0,8.2-3.53q3.09-3.525,3.09-9.52a12.848,12.848,0,0,0-4.15-9.96,15.176,15.176,0,0,0-10.67-3.79,17.084,17.084,0,0,0-11.46,4.05q-4.77,4.065-4.76,12h0Zm-44.45-53.08q2.475,10.4,2.47,25.74c0,3.53-.17,7.17-0.53,10.93h3.71q0-6.165,3.7-8.72t11.82-2.56h100.52q7.245,0,9.97,2.56t2.73,8.72h3.7q-0.69-18.33-.7-24.33,0-5.295.7-23.63h-3.7q0,6.345-2.73,8.82t-9.97,2.47H1459.6Zm139.33-42.15q0-17.1-14.29-25.92,6.525-.165,10.41-4.05t3.88-13.58q0-11.46-6.53-19.4l-2.99,1.77c2,2.47,2.99,4.58,2.99,6.34a3.05,3.05,0,0,1-1.76,3.09,15.971,15.971,0,0,1-6,.79h-47.97a69.641,69.641,0,0,0-15.34,1.33,19.365,19.365,0,0,0-9.52,5.2,23.527,23.527,0,0,0-6,10.58,56.634,56.634,0,0,0-1.76,14.99,69.144,69.144,0,0,0,1.58,15.25,40.812,40.812,0,0,0,4.41,11.73,23.56,23.56,0,0,0,6.44,7.31,15.82,15.82,0,0,0,18.08-.97q3.87-3.345,3.88-9.52a14.515,14.515,0,0,0-3.53-9.87,11.962,11.962,0,0,0-9.52-4.06,13.139,13.139,0,0,0-8.29,2.73,16.414,16.414,0,0,0-5.29,7.68q-4.245-4.41-4.24-12.88,0-7.23,4.15-10.67t11.55-3.43h13.76a8.4,8.4,0,0,1,7.49,4.49q2.745,4.5,6.09,14.2a146.905,146.905,0,0,0,5.99,15.07,28.368,28.368,0,0,0,8.03,10.06c3.47,2.76,7.84,4.14,13.14,4.14q9.51,0,15.34-5.56t5.82-16.84h0Zm-11.29-13.57a9.981,9.981,0,0,1-3.44,7.93q-3.435,3-10.67,3-8.28,0-12.7-3.53a43.083,43.083,0,0,1-8.81-10.4q-4.245-6.885-7.76-8.99h36.15q7.23,5.115,7.23,11.99h0Zm-83.59-115.15a23.568,23.568,0,0,0,4.67,14.29,29.88,29.88,0,0,0,12.26,9.69h-16.4q2.46,10.05,2.46,25.75,0,5.3-.52,10.93h3.7q0-6.345,3.7-8.82t11.82-2.46h55.55q7.245,0,9.97,2.46t2.73,8.82h3.7a29.076,29.076,0,0,0-.17-3.53q-0.525-16.92-.53-21.68,0-6,.53-23.99a37.329,37.329,0,0,0,.17-4.05h-3.7q0,8.64-3.17,12.61t-11.29,3.96h-46.74a25.858,25.858,0,0,1-14.46-4.67q-7.05-4.665-8.11-11.37a9.07,9.07,0,0,1-.35-2.82,10,10,0,0,1,.17-2.12q5.3,7.755,13.76,7.76a10.335,10.335,0,0,0,8.2-3.53q3.09-3.525,3.09-9.52a12.848,12.848,0,0,0-4.15-9.96,15.176,15.176,0,0,0-10.67-3.79,17.084,17.084,0,0,0-11.46,4.05q-4.77,4.065-4.76,11.99h0Z" transform="translate(-1459.59 -4664.63)"/>
</svg>
