<svg xmlns="http://www.w3.org/2000/svg" width="213.125" height="582.34" viewBox="0 0 213.125 582.34">
  <defs>
    <style>
      .cls-1 {
        fill: #231f1c;
        fill-rule: evenodd;
        opacity: 0.05;
      }
    </style>
  </defs>
  <path id="Foto.svg" class="cls-1" d="M189.5,6051.58q0.885,18.3.886,61.69,0,64.35-.886,96.22h5.9q0.6-9.735,2.362-14.32a10.221,10.221,0,0,1,6.789-6.19q5.023-1.62,16.237-1.63H367.208q11.223,0,16.237,1.63a10.215,10.215,0,0,1,6.789,6.19q1.772,4.59,2.362,14.32h5.9l-0.3-9.45q-0.588-22.425-.591-37.19,0-17.7.886-54.01h-6.5q-0.289,13.875-2.066,20.22a13,13,0,0,1-7.232,8.85q-5.46,2.52-17.27,2.51h-67.9v-10.33q0-29.805,38.967-36.01v-6.79q-26.859,1.77-41.919,1.78h-14.17q-15.346,0-27.749-.89v6.79a72.059,72.059,0,0,1,27.454,11.36q11.512,8.13,11.513,23.76v10.33H217.244q-9.444,0-13.727-1.47a8.867,8.867,0,0,1-5.756-5.61q-1.475-4.125-1.476-13.28v-9.74q0-21.255,13.579-33.06t46.938-17.71v-6.79q-8.559.885-22.436,0.89-19.775,0-44.871-2.07h0Zm52.251-82.64q0,33.645,19.336,52.98t61.255,19.33q41.922,0,61.108-19.33t19.188-52.98q0-33.945-19.188-53.13t-61.108-19.19q-41.914,0-61.255,19.19t-19.336,53.13h0Zm5.9,0q0-12.69,18.3-20.22t56.384-7.53q38.082,0,56.237,7.38t18.155,20.37q0,12.69-18.3,20.21t-56.089,7.53q-37.783,0-56.236-7.53-18.447-7.515-18.451-20.21h0Zm-50.185-150.53q9.451,18,9.447,42.5h38.967v24.79h5.9v-24.79h99.779q16.239,0,25.536-2.21a31.873,31.873,0,0,0,15.5-8.41q10.032-10.035,10.037-29.52,0-29.22-30.406-40.44l-2.657,5.02q17.712,7.38,17.712,20.07,0,6.8-3.69,9.89t-12.546,3.1H251.783v-34.83h-5.9v34.83H197.465Zm44.281-118.95q0,33.645,19.336,52.98t61.255,19.34q41.922,0,61.108-19.34,19.193-19.32,19.188-52.98,0-33.93-19.188-53.13-19.186-19.185-61.108-19.18t-61.255,19.18q-19.33,19.2-19.336,53.13h0Zm5.9,0q0-12.69,18.3-20.22,18.308-7.515,56.384-7.52t56.237,7.38q18.155,7.38,18.155,20.36,0,12.69-18.3,20.22t-56.089,7.53q-37.783,0-56.236-7.53t-18.451-20.22h0Z" transform="translate(-189.5 -5627.16)"/>
</svg>
