<svg xmlns="http://www.w3.org/2000/svg" width="32.031" height="32" viewBox="0 0 32.031 32">
  <defs>
    <style>
      .cls-1 {
        fill: #949494;
        fill-rule: evenodd;
      }
    </style>
  </defs>
  <path id="googlemap.svg" class="cls-1" d="M737.461,9121.11l-5-2a1,1,0,1,0-.743,1.85l4.375,1.75v14.7l-6.006-3v-8.38a1,1,0,0,0-2,0v8.42l-5,2.86v-4.28a1,1,0,0,0-2,0v4.28l-5-2.86v-8.42a1,1,0,0,0-2,0v8.38l-6,3v-14.7l4.375-1.75a1,1,0,1,0-.743-1.85l-5,2a0.986,0.986,0,0,0-.629.92v17a1.01,1.01,0,0,0,1.448.9l7.529-3.76,6.533,3.73h0.008a0.434,0.434,0,0,0,.107.04,0.716,0.716,0,0,0,.133.06,1.107,1.107,0,0,0,.512,0,0.755,0.755,0,0,0,.134-0.06,0.449,0.449,0,0,0,.107-0.04h0.007l6.534-3.73,7.528,3.76a1.022,1.022,0,0,0,.974-0.05,0.992,0.992,0,0,0,.475-0.85v-17A0.986,0.986,0,0,0,737.461,9121.11Zm-15.385,8.92a0.992,0.992,0,0,0,.795-0.39c0.738-.96,7.212-9.52,7.212-13.6a8.007,8.007,0,0,0-16.014,0c0,4.08,6.474,12.64,7.213,13.6A0.988,0.988,0,0,0,722.076,9130.03Zm0-19.99a6.009,6.009,0,0,1,6.006,6c0,2.54-3.806,8.3-6.006,11.32-2.2-3.02-6-8.78-6-11.32A6.008,6.008,0,0,1,722.076,9110.04Zm4,6a4,4,0,1,0-4,3.99A4,4,0,0,0,726.08,9116.04Zm-6.006,0a2,2,0,1,1,2,1.99A2.008,2.008,0,0,1,720.074,9116.04Z" transform="translate(-706.063 -9108.03)"/>
</svg>
