<svg xmlns="http://www.w3.org/2000/svg" width="532.06" height="273" viewBox="0 0 532.06 273">
  <defs>
    <style>
      .cls-1 {
        fill: #231f1c;
        fill-rule: evenodd;
        opacity: 0.05;
      }
    </style>
  </defs>
  <path id="Hajumra.svg" class="cls-1" d="M1386.57,2827.22q-5.865.57-16.48,0.57-13.26,0-20.46-.57v3.79q8.145,0.945,11.93,3.31a12.009,12.009,0,0,1,5.12,7.67q1.32,5.31,1.33,16.29v50.01q0,23.49-7.77,36.28t-26.72,12.78q-14.58,0-20.36-9.37t-5.78-29.27V2847.3q0-7.2,1.14-10.42a6.779,6.779,0,0,1,4.26-4.36,37.567,37.567,0,0,1,9.95-1.51v-3.79q-10.425.57-30.13,0.57-19.89,0-29.55-.57v3.79a32.756,32.756,0,0,1,9.18,1.51,6.544,6.544,0,0,1,3.98,4.36q1.05,3.225,1.05,10.42v59.48q0,19.32,3.03,30.02a34.115,34.115,0,0,0,11.74,17.71q12.12,9.48,34.11,9.47,14.01,0,23.68-4.64a34.137,34.137,0,0,0,14.78-12.97q7.755-13.08,7.76-40.16v-50.2a75.408,75.408,0,0,1,1.05-14.59q1.035-4.92,3.97-7.19t9.19-3.22v-3.79Zm157.06,116.5v-50.96a72.275,72.275,0,0,0-1.32-15.34,20.629,20.629,0,0,0-4.36-9.29q-6.45-7.38-20.84-7.38a38.769,38.769,0,0,0-18.57,4.26q-7.95,4.26-12.88,14.49-1.14-7.575-4.74-11.37-6.435-7.38-20.84-7.38-21.03,0-29.36,17.61v-17.05q-10.8,2.655-27.67,2.66-5.67,0-11.74-.57v3.98q6.825,0,9.47,3.97,2.655,3.99,2.65,12.7v59.67q0,7.77-2.65,10.7t-9.47,2.93v3.98q20.46-.75,26.14-0.76t22.36,0.76v-3.98c-3.41,0-5.78-.97-7.1-2.93s-1.99-5.52-1.99-10.7v-52.67a23.277,23.277,0,0,1,5.4-15.62q5.4-6.345,12.97-6.35,6.06,0,8.15,3.88t2.08,11.84v58.92q0,7.77-1.99,10.7c-1.32,1.96-3.69,2.93-7.1,2.93v3.98q18.195-.75,23.49-0.76,5.685,0,23.87.76v-3.98c-4.16,0-7.04-.97-8.62-2.93s-2.36-5.52-2.36-10.7v-54.37a25.349,25.349,0,0,1,6.15-14.4q5.22-5.865,12.22-5.87,6.63,0,9,3.88t2.37,11.84v58.92q0,7.95-1.99,10.79c-1.32,1.9-3.69,2.84-7.1,2.84v3.98q18.18-.75,23.49-0.76,6.06,0,25.01.76v-3.98q-6.63,0-9.38-2.93t-2.75-10.7h0Zm84.31-82.97a25.205,25.205,0,0,0-15.34,5.02,31.958,31.958,0,0,0-10.42,13.16v-17.62q-10.8,2.655-27.67,2.66-5.67,0-11.74-.57v3.98q6.825,0,9.47,3.97,2.655,3.99,2.65,12.7v59.67q0,7.77-2.65,10.7t-9.47,2.93v3.98a30.841,30.841,0,0,0,3.79-.19q18.18-.57,23.3-0.57,6.435,0,25.77.57a39.6,39.6,0,0,0,4.35.19v-3.98q-9.285,0-13.54-3.41t-4.26-12.12v-50.2a27.777,27.777,0,0,1,5.02-15.53q5.01-7.575,12.22-8.71a9.559,9.559,0,0,1,3.03-.38,9.874,9.874,0,0,1,2.27.19q-8.34,5.685-8.34,14.77a11.137,11.137,0,0,0,3.79,8.81q3.8,3.315,10.23,3.32a13.841,13.841,0,0,0,10.71-4.46,16.312,16.312,0,0,0,4.07-11.46,18.339,18.339,0,0,0-4.36-12.31q-4.35-5.115-12.88-5.11h0Zm48.31,101.91q18.375,0,27.85-15.35,0.2,7.02,4.36,11.18t14.59,4.17q12.315,0,20.84-7.01l-1.9-3.22q-3.975,3.225-6.82,3.22a3.277,3.277,0,0,1-3.31-1.89,17.212,17.212,0,0,1-.85-6.45v-51.52a75.914,75.914,0,0,0-1.42-16.48,20.987,20.987,0,0,0-5.59-10.23,25.329,25.329,0,0,0-11.37-6.44,60.785,60.785,0,0,0-16.11-1.89,73.5,73.5,0,0,0-16.38,1.7,43.851,43.851,0,0,0-12.6,4.74,25.315,25.315,0,0,0-7.86,6.91,16.98,16.98,0,0,0,1.04,19.42c2.39,2.78,5.81,4.16,10.23,4.16a15.637,15.637,0,0,0,10.61-3.78,12.894,12.894,0,0,0,4.36-10.23,14.128,14.128,0,0,0-2.94-8.91,17.643,17.643,0,0,0-8.24-5.68q4.725-4.545,13.83-4.55c5.17,0,9,1.49,11.46,4.46s3.69,7.1,3.69,12.4v14.78q0,5.115-4.83,8.05t-15.25,6.54a158.861,158.861,0,0,0-16.2,6.44,30.467,30.467,0,0,0-10.8,8.61q-4.455,5.595-4.45,14.12,0,10.23,5.97,16.48t18.09,6.25h0Zm14.59-12.13a10.734,10.734,0,0,1-8.52-3.69q-3.225-3.69-3.23-11.46,0-8.9,3.79-13.64a46.438,46.438,0,0,1,11.18-9.47q7.395-4.545,9.66-8.33v38.83q-5.49,7.77-12.88,7.76h0Zm-43.72-243.05v-3.79q-9.285.57-28.8,0.57-19.14,0-29.75-.57v3.79a32.7,32.7,0,0,1,9.19,1.52,6.551,6.551,0,0,1,3.98,4.35q1.035,3.225,1.04,10.42v44.71h-50.2v-44.71c0-4.8.34-8.27,1.04-10.42a6.556,6.556,0,0,1,3.88-4.35c1.9-.76,4.99-1.27,9.29-1.52v-3.79q-10.245.57-28.61,0.57-20.28,0-29.94-.57v3.79a32.7,32.7,0,0,1,9.19,1.52,6.551,6.551,0,0,1,3.98,4.35q1.035,3.225,1.04,10.42v93.96q0,7.2-1.04,10.42a6.551,6.551,0,0,1-3.98,4.35,32.7,32.7,0,0,1-9.19,1.52v3.79q9.66-.57,29.94-0.57,18.375,0,28.61.57v-3.79c-4.3-.25-7.39-0.76-9.29-1.52a6.556,6.556,0,0,1-3.88-4.35c-0.7-2.15-1.04-5.62-1.04-10.42v-45.47h50.2v45.47q0,7.2-1.04,10.42a6.551,6.551,0,0,1-3.98,4.35,32.7,32.7,0,0,1-9.19,1.52v3.79q10.62-.57,29.75-0.57,19.515,0,28.8.57v-3.79c-4.3-.25-7.39-0.76-9.29-1.52a6.556,6.556,0,0,1-3.88-4.35c-0.7-2.15-1.04-5.62-1.04-10.42v-93.96c0-4.8.34-8.27,1.04-10.42a6.556,6.556,0,0,1,3.88-4.35c1.9-.76,4.99-1.27,9.29-1.52h0Zm34.66,131.65q18.375,0,27.86-15.34,0.18,7.005,4.35,11.18,4.17,4.155,14.59,4.16,12.315,0,20.84-7.01l-1.89-3.22q-3.99,3.225-6.82,3.22a3.282,3.282,0,0,1-3.32-1.89,17.151,17.151,0,0,1-.85-6.44v-51.53a75.978,75.978,0,0,0-1.42-16.48,20.832,20.832,0,0,0-5.59-10.22,25.292,25.292,0,0,0-11.37-6.45,60.759,60.759,0,0,0-16.1-1.89,73.575,73.575,0,0,0-16.39,1.71,43.562,43.562,0,0,0-12.6,4.73,25.206,25.206,0,0,0-7.86,6.92,16.964,16.964,0,0,0,1.04,19.41q3.6,4.17,10.23,4.17a15.6,15.6,0,0,0,10.61-3.79,12.866,12.866,0,0,0,4.36-10.23,14.1,14.1,0,0,0-2.94-8.9,17.572,17.572,0,0,0-8.24-5.68q4.725-4.56,13.83-4.55,7.77,0,11.46,4.45t3.7,12.41v14.77q0,5.115-4.83,8.05-4.845,2.94-15.26,6.54a158.57,158.57,0,0,0-16.19,6.44,30.32,30.32,0,0,0-10.8,8.62q-4.455,5.6-4.46,14.11,0,10.23,5.97,16.48t18.09,6.25h0Zm14.59-12.12a10.748,10.748,0,0,1-8.52-3.69c-2.15-2.47-3.22-6.28-3.22-11.46q0-8.91,3.79-13.64a45.73,45.73,0,0,1,11.17-9.47q7.4-4.56,9.67-8.34v38.83q-5.505,7.77-12.89,7.77h0Zm49.64,46.41q22.74,0,33.91-10.23a37.739,37.739,0,0,0,10.52-17.05q3.12-10.23,3.12-26.14v-82.21q-11.175,2.655-27.66,2.65-5.685,0-11.74-.57v3.98q6.63,0,9.37,3.98t2.75,12.69v80.7q0,14.01-5.4,21.21a18.559,18.559,0,0,1-14.87,7.58v3.41ZM1777.84,2691q-7.965,0-12.6,3.88t-4.64,10.71q0,6.81,4.64,10.7t12.6,3.88q7.95,0,12.6-3.88,4.635-3.885,4.64-10.7t-4.64-10.71q-4.65-3.87-12.6-3.88h0Z" transform="translate(-1263.03 -2691)"/>
</svg>
