<svg xmlns="http://www.w3.org/2000/svg" width="12" height="17" viewBox="0 0 12 17">
  <defs>
    <style>
      .cls-1 {
        fill: #fff;
        fill-rule: evenodd;
      }
    </style>
  </defs>
  <path id="map.svg" class="cls-1" d="M380.046,9136.03a0.744,0.744,0,0,0,.6-0.3c0.553-.75,5.405-7.36,5.405-10.52a6,6,0,1,0-12,0c0,3.16,4.852,9.77,5.405,10.52A0.741,0.741,0,0,0,380.046,9136.03Zm0-15.45a4.573,4.573,0,0,1,4.5,4.63c0,1.97-2.851,6.42-4.5,8.75-1.648-2.33-4.5-6.78-4.5-8.75A4.574,4.574,0,0,1,380.046,9120.58Zm3,4.63a3,3,0,1,0-3,3.09A3.051,3.051,0,0,0,383.046,9125.21Zm-4.5,0a1.5,1.5,0,1,1,1.5,1.55A1.522,1.522,0,0,1,378.546,9125.21Z" transform="translate(-374.031 -9119.03)"/>
</svg>
