<svg xmlns="http://www.w3.org/2000/svg" width="505.84" height="126.38" viewBox="0 0 505.84 126.38">
  <defs>
    <style>
      .cls-1 {
        fill: #231f1c;
        fill-rule: evenodd;
        opacity: 0.05;
      }
    </style>
  </defs>
  <path id="Muslum-Travel.svg" class="cls-1" d="M1357.51,1421.39v-2.83q-7.785.42-22.21,0.43h-10.04l-26.03,68.47-28.58-68.9q-9.33.42-22.35,0.43-7.785,0-12.31-.43v2.83a24.841,24.841,0,0,1,6.86,1.13,4.906,4.906,0,0,1,2.97,3.26,27.635,27.635,0,0,1,.78,7.78v63.66a56.484,56.484,0,0,1-.78,10.89,8.8,8.8,0,0,1-2.97,5.38q-2.19,1.695-6.86,2.4v2.83q4.53-.42,12.31-0.42,9.765,0,15.28.42v-2.83c-4.25-.47-7.31-1.29-9.2-2.47a8.434,8.434,0,0,1-3.68-5.66,63.629,63.629,0,0,1-.85-12.24v-67.76l38.2,91.1h2.26l34.1-89.12v73.99a25.448,25.448,0,0,1-.85,7.78,5.094,5.094,0,0,1-3.18,3.25,28.173,28.173,0,0,1-7.43,1.13v2.83q7.215-.42,22.35-0.42,14.43,0,22.21.42v-2.83a24.465,24.465,0,0,1-6.86-1.13,4.89,4.89,0,0,1-2.97-3.25,27.732,27.732,0,0,1-.78-7.78v-70.17a27.635,27.635,0,0,1,.78-7.78,4.929,4.929,0,0,1,2.9-3.26,24.521,24.521,0,0,1,6.93-1.13h0Zm76.82,22.64a91.248,91.248,0,0,1-20.66,1.98c-2.82,0-5.75-.14-8.77-0.43v2.97q4.95,0,7.01,2.97c1.36,1.98,2.05,5.15,2.05,9.48v37.07a17.431,17.431,0,0,1-4.03,11.67,12.32,12.32,0,0,1-9.69,4.74q-4.965,0-6.72-2.97t-1.77-8.92v-58.56a91.248,91.248,0,0,1-20.66,1.98c-2.92,0-5.85-.14-8.77-0.43v2.97c3.3,0,5.64.99,7,2.97s2.06,5.15,2.06,9.48v35.79a49.154,49.154,0,0,0,1.06,11.39,16.955,16.955,0,0,0,3.32,7.01q4.815,5.5,15.42,5.51,16.275,0,22.78-13.15v12.73a91.153,91.153,0,0,1,20.65-1.98c2.92,0,5.85.14,8.77,0.42v-2.97q-4.95,0-7-2.97t-2.05-9.48v-59.27Zm43.29-.43q-10.185,0-17.26,5.24a16.811,16.811,0,0,0-7.08,14.28,19.279,19.279,0,0,0,2.34,9.48,29.076,29.076,0,0,0,5.66,7.36q3.315,3.12,9.69,8.2,5.37,4.245,8.06,6.65a22.128,22.128,0,0,1,4.46,5.52,14.083,14.083,0,0,1,1.77,7.07q0,5.1-2.9,7.57a10.451,10.451,0,0,1-7.01,2.48q-16.26,0-19.09-26.03h-2.98q0,20.235-.56,28.29h2.97a9.827,9.827,0,0,1,1.63-4.03,2.179,2.179,0,0,1,2.47-.92,67.943,67.943,0,0,1,6.51,2.97,27.71,27.71,0,0,0,13.3,2.97,34.643,34.643,0,0,0,13.44-2.54,22.89,22.89,0,0,0,9.69-7.36,17.928,17.928,0,0,0,3.61-11.03,19.639,19.639,0,0,0-4.11-12.74q-4.1-5.085-12.73-11.6l-4.1-2.97a71.027,71.027,0,0,1-10.19-8.42,11.645,11.645,0,0,1-3.25-8.27,8.352,8.352,0,0,1,2.76-6.65,10.283,10.283,0,0,1,7-2.41q8.205,0,12.52,6.3a35.821,35.821,0,0,1,5.59,15.63h2.97q0-17.685.56-24.9h-2.97a8.629,8.629,0,0,1-1.2,3.89,2.627,2.627,0,0,1-2.19,1.35,4.583,4.583,0,0,1-2.55-.99,23.965,23.965,0,0,0-6.93-3.04,34.544,34.544,0,0,0-9.9-1.35h0Zm66.2-35.65a91.153,91.153,0,0,1-20.65,1.98q-4.245,0-8.77-.42v2.97q4.95,0,7,2.97t2.05,9.48v80.64c0,3.86-.68,6.53-2.05,7.99s-3.7,2.19-7,2.19v2.97q14.715-.555,19.52-0.56,4.245,0,18.96.56v-2.97q-5.1,0-7.08-2.19c-1.32-1.46-1.98-4.13-1.98-7.99v-97.62Zm34.8,1.13q-5.94,0-9.4,2.9a10.945,10.945,0,0,0,0,15.99q3.465,2.9,9.4,2.9t9.41-2.9a10.945,10.945,0,0,0,0-15.99q-3.465-2.895-9.41-2.9h0Zm9.76,34.95q-8.055,1.98-20.65,1.98-4.245,0-8.77-.43v2.97q5.085,0,7.07,2.97c1.32,1.98,1.98,5.15,1.98,9.48v44.57c0,3.86-.66,6.53-1.98,7.99s-3.68,2.19-7.07,2.19v2.97q15.27-.555,19.66-0.56,4.68,0,18.82.56v-2.97c-3.3,0-5.64-.73-7-2.19s-2.06-4.13-2.06-7.99v-61.54Zm128.88,61.54v-38.06a53.873,53.873,0,0,0-.99-11.46,15.331,15.331,0,0,0-3.25-6.93q-4.815-5.52-15.56-5.52a28.948,28.948,0,0,0-13.87,3.18q-5.94,3.2-9.62,10.83-0.84-5.655-3.53-8.49-4.815-5.52-15.57-5.52-15.7,0-21.92,13.16v-12.73q-8.07,1.98-20.66,1.98-4.245,0-8.77-.43v2.97c3.4,0,5.75.99,7.07,2.97s1.98,5.15,1.98,9.48v44.57c0,3.86-.66,6.53-1.98,7.99s-3.67,2.19-7.07,2.19v2.97q15.285-.555,19.52-0.56t16.7,0.56v-2.97q-3.825,0-5.31-2.19c-0.99-1.46-1.48-4.13-1.48-7.99v-39.33a17.38,17.38,0,0,1,4.03-11.67,12.32,12.32,0,0,1,9.69-4.74c3.02,0,5.04.96,6.08,2.9s1.56,4.88,1.56,8.84v44c0,3.86-.5,6.53-1.49,7.99s-2.76,2.19-5.3,2.19v2.97q13.575-.555,17.54-0.56,4.245,0,17.82.56v-2.97q-4.665,0-6.43-2.19c-1.18-1.46-1.77-4.13-1.77-7.99v-40.61a18.878,18.878,0,0,1,4.6-10.75,11.846,11.846,0,0,1,9.12-4.38c3.3,0,5.54.96,6.72,2.9s1.77,4.88,1.77,8.84v44c0,3.96-.5,6.64-1.49,8.06s-2.75,2.12-5.3,2.12v2.97q13.575-.555,17.54-0.56,4.53,0,18.68.56v-2.97c-3.31,0-5.64-.73-7.01-2.19s-2.05-4.13-2.05-7.99h0Zm-88.83-107.53q-4.455.15-15.25,0.15t-15.3-.15c0.23,3.14.35,5.94,0.35,8.42,0,1.55-.05,2.8-0.15,3.76h1.14a27.534,27.534,0,0,1,2.03-6.56,8.145,8.145,0,0,1,2.85-3.44,7.369,7.369,0,0,1,4.03-1.04h1.09v28.27a7.9,7.9,0,0,1-.42,3.02,2.272,2.272,0,0,1-1.49,1.27,13.945,13.945,0,0,1-3.39.37v0.99q5.94-.15,9.06-0.15c2.12,0,5.25.05,9.41,0.15v-0.99a13.945,13.945,0,0,1-3.39-.37,2.254,2.254,0,0,1-1.48-1.27,7.672,7.672,0,0,1-.43-3.02v-28.27h1.14a6.907,6.907,0,0,1,5.62,2.47c1.37,1.66,2.45,4.51,3.25,8.57h1.14c-0.1-.96-0.15-2.21-0.15-3.76,0-2.48.11-5.28,0.34-8.42h0Zm19.51,8.76a6.585,6.585,0,0,0-4.01,1.32,8.441,8.441,0,0,0-2.72,3.44v-4.61a30.631,30.631,0,0,1-7.23.7c-0.99,0-2.01-.05-3.07-0.15v1.04a2.755,2.755,0,0,1,2.48,1.04,6.139,6.139,0,0,1,.69,3.31v15.6a4.247,4.247,0,0,1-.69,2.8,3.269,3.269,0,0,1-2.48.77v1.04a8.757,8.757,0,0,0,.99-0.05q4.755-.15,6.09-0.15,1.68,0,6.74.15a11.242,11.242,0,0,0,1.13.05v-1.04a5.718,5.718,0,0,1-3.54-.89,3.873,3.873,0,0,1-1.11-3.17v-13.12a7.292,7.292,0,0,1,1.31-4.06,4.738,4.738,0,0,1,3.2-2.28,2.409,2.409,0,0,1,.79-0.1,2.794,2.794,0,0,1,.59.05,4.506,4.506,0,0,0-2.18,3.86,2.889,2.889,0,0,0,.99,2.3,3.928,3.928,0,0,0,2.68.87,3.643,3.643,0,0,0,2.8-1.16,4.282,4.282,0,0,0,1.06-3,4.8,4.8,0,0,0-1.14-3.22,4.184,4.184,0,0,0-3.37-1.34h0Zm12.63,26.65a8.028,8.028,0,0,0,7.28-4.02,4.1,4.1,0,0,0,1.14,2.93,5.352,5.352,0,0,0,3.81,1.09,8.317,8.317,0,0,0,5.45-1.84l-0.5-.84a3.045,3.045,0,0,1-1.78.84,0.837,0.837,0,0,1-.86-0.49,4.441,4.441,0,0,1-.23-1.69v-13.46a19.536,19.536,0,0,0-.37-4.31,5.466,5.466,0,0,0-1.46-2.68,6.605,6.605,0,0,0-2.97-1.68,15.83,15.83,0,0,0-4.21-.5,19.059,19.059,0,0,0-4.28.45,11.543,11.543,0,0,0-3.3,1.24,6.5,6.5,0,0,0-2.05,1.81,4.428,4.428,0,0,0,.27,5.07,3.341,3.341,0,0,0,2.68,1.09,4.091,4.091,0,0,0,2.77-.99,3.356,3.356,0,0,0,1.14-2.67,3.691,3.691,0,0,0-.77-2.33,4.605,4.605,0,0,0-2.15-1.49,5.019,5.019,0,0,1,3.61-1.19,3.684,3.684,0,0,1,3,1.17,4.948,4.948,0,0,1,.96,3.24v3.86a2.357,2.357,0,0,1-1.26,2.11,22.223,22.223,0,0,1-3.99,1.71,40.411,40.411,0,0,0-4.23,1.68,7.907,7.907,0,0,0-2.82,2.25,5.74,5.74,0,0,0-1.17,3.69,5.973,5.973,0,0,0,1.56,4.31,6.258,6.258,0,0,0,4.73,1.64h0Zm3.81-3.17a2.814,2.814,0,0,1-2.22-.97,4.423,4.423,0,0,1-.85-3,5.571,5.571,0,0,1,.99-3.56,12.039,12.039,0,0,1,2.93-2.48,7.412,7.412,0,0,0,2.52-2.18v10.16a4.116,4.116,0,0,1-3.37,2.03h0Zm34.92-22.63c-1.66,0-3.24-.05-4.76-0.15v0.99q3.615,0.3,3.62,3.91a12.758,12.758,0,0,1-.8,4.01l-3.56,9.81-5.65-15.01a5.052,5.052,0,0,1-.24-1.24,1.1,1.1,0,0,1,.71-1.21,9.045,9.045,0,0,1,2.41-.22v-1.04c-2.22.16-4.36,0.24-6.44,0.24q-3.57,0-7.03-.24v1.04a2.425,2.425,0,0,1,1.46.54,5.464,5.464,0,0,1,1.41,2.23l8.81,21.89c0.37-.04.89-0.05,1.59-0.05,0.72,0,1.27.01,1.63,0.05l7.23-20.45a10.241,10.241,0,0,1,1.56-3,3.876,3.876,0,0,1,1.86-1.26v-0.99a35.746,35.746,0,0,1-3.81.15h0Zm18.86,22.08a5.482,5.482,0,0,1-3.14-.99,6.906,6.906,0,0,1-2.38-3.17,14.123,14.123,0,0,1-.92-5.45c0-1.05.02-1.83,0.05-2.32h13.92q0-10.995-9.31-11a11.526,11.526,0,0,0-8.82,3.54c-2.21,2.37-3.31,5.77-3.31,10.23q0,6.54,3.09,9.88a10.819,10.819,0,0,0,8.35,3.34,9.263,9.263,0,0,0,6.36-2.25,11.82,11.82,0,0,0,3.54-5.47l-0.89-.3q-2.475,3.96-6.54,3.96h0Zm-2.08-21.89c1.16,0,2.02.85,2.6,2.55a18.767,18.767,0,0,1,.77,6.47h-7.78a17.634,17.634,0,0,1,1.47-6.81c0.77-1.47,1.75-2.21,2.94-2.21h0Zm22.58-13.51a32.086,32.086,0,0,1-7.23.69c-0.99,0-2.01-.05-3.07-0.15v1.04a2.767,2.767,0,0,1,2.45,1.04,5.945,5.945,0,0,1,.72,3.32v28.22a4.116,4.116,0,0,1-.72,2.8,3.252,3.252,0,0,1-2.45.77v1.04c3.44-.13,5.71-0.2,6.84-0.2q1.485,0,6.63.2v-1.04a3.228,3.228,0,0,1-2.47-.77,4.183,4.183,0,0,1-.7-2.8v-34.16Z" transform="translate(-1236 -1394.31)"/>
</svg>
