<svg xmlns="http://www.w3.org/2000/svg" width="1920" height="179" viewBox="0 0 1920 179">
  <defs>
    <style>
      .cls-1 {
        fill: #e7811f;
        fill-rule: evenodd;
        opacity: 0.05;
      }
    </style>
  </defs>
  <path id="naqsh.svg" class="cls-1" d="M2014,123.373l-24.09-.09-11.94,20.577-11.94-20.577-16.48.062-8.65,14.641,12.13,20.527-24.1-.091L1916.99,179l-11.94-20.578-24.09.091,12.12-20.527-8.65-14.64-16.81-.063-11.95,20.577-0.12-.2-0.11.2-11.95-20.577-16.47.062-8.65,14.641,12.12,20.527-24.09-.091L1794.46,179l-11.95-20.578-24.09.091,12.13-20.527-8.65-14.64-16.82-.063-11.94,20.577-0.12-.2-0.12.2-11.94-20.577-16.48.062-8.65,14.641,12.13,20.527-24.09-.091L1671.92,179l-11.94-20.578-24.09.091,12.13-20.527-8.65-14.64-16.82-.063-11.94,20.577-0.12-.2-0.12.2-11.94-20.577-16.48.062-8.65,14.641,12.13,20.527-24.09-.091L1549.39,179l-11.94-20.578-24.09.091,12.12-20.527-8.65-14.641-16.4-.061-11.94,20.576-0.21-.361-0.21.361-11.94-20.576-16.06.061-8.65,14.641,12.13,20.527-24.09-.091L1427.51,179l-11.94-20.578-24.09.091,12.12-20.527-8.65-14.64-16.81-.063-11.95,20.577-0.11-.2-0.12.2-11.94-20.577-16.48.062-8.65,14.641,12.13,20.527-24.1-.091L1304.98,179l-11.94-20.578-24.09.091,12.12-20.527-8.65-14.64-16.82-.063-11.94,20.577-0.12-.2-0.11.2-11.95-20.577-16.47.062-8.65,14.641,12.12,20.527-24.09-.091L1182.45,179l-11.95-20.578-24.09.091,12.13-20.527-8.65-14.64-16.82-.063-11.94,20.577-0.12-.2-0.12.2-11.94-20.577-16.48.062-8.65,14.641,12.13,20.527-24.09-.091L1059.91,179l-11.94-20.578-24.09.091,12.13-20.527-8.65-14.641-16.4-.061L999.015,143.86l-0.21-.361-0.21.361-11.943-20.576-16.056.061-8.65,14.641,12.125,20.527-24.091-.091L938.036,179l-11.944-20.578L902,158.513l12.126-20.527-8.649-14.64-16.818-.063L876.717,143.86l-0.118-.2-0.118.2-11.943-20.577-16.476.062-8.649,14.641,12.125,20.527-24.091-.091L815.5,179l-11.944-20.578-24.091.091,12.126-20.527-8.65-14.64-16.817-.063L754.184,143.86l-0.118-.2-0.118.2-11.943-20.577-16.476.062-8.649,14.641,12.125,20.527-24.091-.091L692.97,179l-11.944-20.578-24.091.091,12.126-20.527-8.65-14.64-16.817-.063L631.651,143.86l-0.118-.2-0.118.2-11.943-20.577L603,123.345l-8.649,14.641,12.125,20.527-24.091-.091L570.437,179l-11.944-20.578-24.091.091,12.126-20.527-8.65-14.641-16.4-.061L509.537,143.86l-0.209-.361-0.21.361-11.943-20.576-16.057.061-8.65,14.641,12.126,20.527-24.092-.091L448.559,179l-11.944-20.578-24.091.091,12.126-20.527L416,123.346l-16.817-.063L387.24,143.86l-0.118-.2-0.118.2-11.943-20.577-16.477.062-8.649,14.641,12.126,20.527-24.092-.091L326.026,179l-11.944-20.578-24.092.091,12.127-20.527-8.65-14.64-16.817-.063L264.707,143.86l-0.118-.2-0.118.2-11.943-20.577-16.477.062L227.4,137.986l12.125,20.527-24.091-.091L203.493,179l-11.944-20.578-24.092.091,12.127-20.527-8.65-14.64-16.817-.063L142.174,143.86l-0.118-.2-0.118.2L130,123.283l-16.477.062-8.649,14.641,12.125,20.527L92.9,158.422,80.959,179,69.016,158.422l-24.091.091,12.126-20.527L48.4,123.345l-16.816-.062L19.641,143.86,7.7,123.283l-24.091.09,12.126-20.527L-16.4,82.32,7.7,82.412l7.888-13.59L7.409,54.736l-24.091.091L-4.556,34.3l-8.65-14.641L-30.022,19.6-41.966,40.173-53.91,19.6-78,19.686-65.875-.839-78-21.365l24.092,0.091,11.944-20.577,11.944,20.578,17.4-.066,8.062-13.646L-16.683-55.512,7.409-55.421,19.353-76,31.3-55.421l24.091-.091L43.262-34.986,51.323-21.34l17.064,0.064L80.331-41.852l0.118,0.2,0.118-.2L92.51-21.276l17.406-.065,8.061-13.645L105.85-55.512l24.092,0.091L141.886-76l11.943,20.578,24.092-.091L165.8-34.986l8.062,13.647,17.064,0.064,11.943-20.576,0.118,0.2,0.118-.2,11.943,20.576,17.406-.065,8.061-13.645L228.383-55.512l24.092,0.091L264.419-76l11.943,20.578,24.092-.091L288.328-34.986,296.39-21.34l17.064,0.064L325.4-41.852l0.118,0.2,0.118-.2,11.943,20.576,17.406-.065,8.061-13.645L350.916-55.512l24.092,0.091L386.952-76,398.9-55.421l24.092-.091L410.861-34.986l8.062,13.648,16.645,0.063,11.943-20.576,0.21,0.361,0.209-.361,11.943,20.576,16.986-.064,8.062-13.646L472.794-55.512l24.092,0.091L508.83-76l11.944,20.578,24.091-.091L532.74-34.986,540.8-21.34l17.064,0.064,11.943-20.576,0.118,0.2,0.118-.2,11.943,20.576,17.406-.065,8.061-13.645L595.327-55.512l24.092,0.091L631.363-76l11.944,20.578,24.091-.091L655.273-34.986l8.061,13.647L680.4-21.276l11.943-20.576,0.118,0.2,0.118-.2L704.52-21.276l17.406-.065,8.061-13.645L717.86-55.512l24.092,0.091L753.9-76,765.84-55.421l24.091-.091L777.806-34.986l8.061,13.647,17.064,0.064,11.944-20.576,0.117,0.2,0.118-.2,11.944,20.576,17.4-.065,8.061-13.645L840.393-55.512l24.092,0.091L876.429-76l11.944,20.578,24.091-.091L900.339-34.986,908.4-21.338l16.644,0.063,11.943-20.576,0.21,0.361,0.21-.361,11.943,20.576,16.986-.064L974.4-34.986,962.271-55.512l24.092,0.091L998.307-76l11.943,20.578,24.09-.091-12.12,20.526,8.06,13.647,17.06,0.064,11.95-20.576,0.11,0.2,0.12-.2,11.94,20.576,17.41-.065,8.06-13.645L1084.8-55.512l24.1,0.091L1120.84-76l11.94,20.578,24.1-.091-12.13,20.526,8.06,13.647,17.07,0.064,11.94-20.576,0.12,0.2,0.11-.2L1194-21.276l17.4-.065,8.06-13.645-12.12-20.526,24.09,0.091L1243.37-76l11.95,20.578,24.09-.091-12.13,20.526,8.06,13.647,17.07,0.064,11.94-20.576,0.12,0.2,0.12-.2,11.94,20.576,17.41-.065L1342-34.986l-12.13-20.526,24.09,0.091L1365.91-76l11.94,20.578,24.09-.091-12.12,20.526,8.06,13.648,16.64,0.063,11.95-20.576,0.21,0.361,0.21-.361,11.94,20.576,16.98-.064,8.07-13.646-12.13-20.526,24.09,0.091L1487.78-76l11.95,20.578,24.09-.091-12.13,20.526,8.07,13.647,17.06,0.064,11.94-20.576,0.12,0.2,0.12-.2,11.94,20.576,17.41-.065,8.06-13.645-12.13-20.526,24.09,0.091L1610.32-76l11.94,20.578,24.09-.091-12.12,20.526,8.06,13.647,17.06,0.064,11.95-20.576,0.11,0.2,0.12-.2,11.95,20.576,17.4-.065,8.06-13.645-12.13-20.526,24.1,0.091L1732.85-76l11.94,20.578,24.1-.091-12.13,20.526,8.06,13.647,17.07,0.064,11.94-20.576,0.12,0.2,0.11-.2,11.95,20.576,17.4-.065,8.07-13.645-12.13-20.526,24.09,0.091L1855.38-76l11.95,20.578,24.09-.091-12.13,20.526,8.07,13.648,17.06,0.064,11.94-20.577,11.95,20.578,24.09-.091L1940.27-.839l12.13,20.525-24.09-.091-8.01,13.794,8.63,14.875,24.1-.09L1940.9,68.7l8.06,13.647,17.07,0.065,11.94-20.578,11.94,20.578L2014,82.32l-12.12,20.526Zm-113.52,14.613-8.35,14.139,16.6-.062,8.26,14.24,8.27-14.24,16.59,0.062-8.35-14.139,8.35-14.138-16.59.064-8.26-14.22-0.01.021-0.01-.021-8.25,14.22-16.6-.064Zm-12.25-20.5,16.82,0.064,8.24-14.209-8.24-14.208-17.41.066-8.06,13.645ZM945.253-14.914L937.2-28.793l-8.055,13.879-0.418,0v0l-16.173-.061L920.9-.839,912.55,13.3l16.174-.061h0.419L937.2,27.114l8.055-13.879h0.419L961.846,13.3,953.5-.839l8.351-14.137-16.174.061v0ZM51.472,48.2l17.543,0.066,8.006-13.792L68.388,19.6l-16.476.062L43.262,34.3ZM48.84,54.8L31.3,54.736,23.408,68.325l8.176,14.087,17.4-.066L57.051,68.7Zm23.855-.177L56.1,54.561,64.453,68.7,56.1,82.838l16.594-.063,8.252,14.219,0.012-.02,0.012,0.02,8.253-14.219,16.594,0.063L97.467,68.7l8.352-14.138-16.594.063-8.265-14.24ZM112.93,82.346L130,82.41l8-13.792-8.058-13.883-16.861.063-8.212,13.9ZM92.9,48.264l16.861-.063,8.213-13.9-8.65-14.64L92.51,19.6l-8.123,14ZM125.379,34.3l-8.352,14.139,16.594-.063,8.064,13.894,0.253-.436,0.118,0.2,0.118-.2,0.082,0.143,7.894-13.6,16.594,0.063L158.393,34.3l8.351-14.138-16.594.063L141.9,6.005l-0.012.021-0.012-.021-8.253,14.219-16.593-.063Zm20.563,34.026,8.175,14.085,17.406-.066L179.584,68.7l-8.211-13.9-17.544-.066ZM165.8,34.3l8.21,13.9,17.544,0.066,8.006-13.792L190.921,19.6l-16.477.062Zm29.433,20.325-16.594-.063L186.986,68.7l-8.352,14.139,16.594-.063,8.253,14.219,0.012-.02,0.012,0.02,8.252-14.219,16.594,0.063L220,68.7l8.351-14.138-16.594.063-8.264-14.24Zm40.235,27.721,17.065,0.064,8.005-13.792-8.058-13.883-16.861.063L227.4,68.7ZM215.436,48.264L232.3,48.2l8.213-13.9-8.65-14.64L215.043,19.6l-8.123,14ZM247.912,34.3L239.56,48.439l16.594-.063,8.064,13.894,0.253-.436,0.118,0.2,0.118-.2,0.083,0.143,7.893-13.6,16.594,0.063L280.926,34.3l8.351-14.138-16.594.063L264.431,6.005l-0.012.021-0.012-.021-8.253,14.219-16.593-.063Zm20.563,34.026L276.65,82.41l17.406-.066L302.117,68.7l-8.211-13.9-17.544-.066ZM288.328,34.3l8.211,13.9,17.543,0.066,8.006-13.792L313.454,19.6l-16.476.062Zm29.433,20.325-16.593-.063L309.519,68.7l-8.352,14.139,16.594-.063,8.253,14.219,0.012-.02,0.012,0.02,8.252-14.219,16.594,0.063L342.533,68.7l8.351-14.138-16.594.063-8.264-14.24ZM358,82.346l17.065,0.064,8-13.792-8.058-13.883-16.861.063-8.212,13.9ZM337.969,48.264l16.862-.063,8.212-13.9-8.65-14.64L337.576,19.6l-8.123,14ZM370.445,34.3l-8.352,14.139,16.594-.063,8.064,13.894L387,61.834l0.118,0.2,0.118-.2,0.083,0.143,7.893-13.6,16.594,0.063L403.459,34.3l8.351-14.138-16.594.063L386.964,6.005l-0.012.021-0.012-.021-8.253,14.219-16.593-.063Zm20.563,34.026,8.175,14.085,17.406-.066L424.65,68.7l-8.211-13.9L398.9,54.736ZM410.861,34.3l8.211,13.9,17.543,0.066,7.8-13.431L435.568,19.6l-16.057.06Zm29.433,20.325L423.7,54.561,432.052,68.7,423.7,82.838l16.594-.063,8.253,14.219,0.012-.02,0.012,0.02,8.252-14.219,16.565,0.063-0.306-.518h0.03L465.066,68.7l8.2-13.875-0.467,0,0.155-.263-16.127.061-8.264-14.24ZM480.53,82.347l16.645,0.063,7.887-13.588-8.176-14.086-16.205.061-8.213,13.9ZM460.5,48.264l16.2-.06,8.214-13.9-8.65-14.641-16.4-.061-8,13.792ZM492.323,34.3l-8.2,13.876,0.467,0-0.156.263,16.127-.061,8.182,14.1,0.371-.639,0.083,0.143,7.893-13.6,16.595,0.063L525.337,34.3l8.352-14.138-16.595.063L508.842,6.005l-0.012.021-0.012-.021-8.253,14.219-16.593-.063ZM513.1,67.964l8.384,14.445,16.986-.064L546.528,68.7l-8.211-13.9-17.543-.066ZM532.74,34.3l8.21,13.9,17.543,0.066L566.5,34.471,557.865,19.6l-16.476.062Zm29.432,20.325-16.593-.063L553.93,68.7l-8.352,14.139,16.594-.063,8.253,14.219,0.012-.02,0.012,0.02L578.7,82.776l16.6,0.063L586.944,68.7,595.3,54.561l-16.6.063-8.264-14.24Zm40.236,27.721,17.064,0.064,8-13.792-8.058-13.883-16.861.063-8.211,13.9ZM582.381,48.264l16.861-.063,8.212-13.9L598.8,19.66,581.987,19.6l-8.123,14ZM614.857,34.3L606.5,48.439l16.594-.063,8.064,13.894,0.253-.436,0.118,0.2,0.118-.2,0.083,0.143,7.893-13.6,16.6,0.063L647.87,34.3l8.352-14.138-16.6.063L631.375,6.005l-0.012.021-0.012-.021L623.1,20.224l-16.593-.063Zm20.562,34.026,8.175,14.085L661,82.345,669.061,68.7,660.85,54.8l-17.543-.066ZM655.273,34.3l8.21,13.9,17.543,0.066,8.006-13.792L680.4,19.6l-16.476.062Zm29.432,20.325-16.593-.063L676.463,68.7l-8.352,14.139,16.594-.063,8.253,14.219,0.012-.02,0.012,0.02,8.252-14.219,16.595,0.063L709.477,68.7l8.352-14.138-16.595.063-8.264-14.24Zm40.236,27.721,17.064,0.064,8-13.792-8.058-13.883-16.861.063L716.88,68.7ZM704.914,48.264l16.861-.063,8.212-13.9-8.649-14.64L704.52,19.6l-8.123,14ZM737.39,34.3l-8.353,14.139,16.595-.063L753.7,62.27l0.253-.436,0.118,0.2,0.118-.2,0.083,0.143,7.894-13.6,16.594,0.063L770.4,34.3l8.352-14.138-16.594.063L753.908,6.005l-0.012.021-0.012-.021-8.252,14.219-16.594-.063Zm20.562,34.026,8.175,14.085,17.406-.066L791.594,68.7l-8.211-13.9-17.543-.066ZM777.806,34.3l8.21,13.9,17.543,0.066,8.006-13.792L802.931,19.6l-16.476.062Zm29.432,20.325-16.593-.063L799,68.7l-8.353,14.139,16.594-.063,8.253,14.219,0.012-.02,0.012,0.02,8.252-14.219,16.595,0.063L832.01,68.7l8.352-14.138-16.595.063L815.5,40.385Zm40.236,27.721,17.064,0.064,8-13.792-8.058-13.883-16.861.063-8.211,13.9ZM827.447,48.264l16.861-.063,8.212-13.9-8.649-14.64L827.054,19.6l-8.124,14ZM859.923,34.3L851.57,48.439l16.595-.063,8.063,13.894,0.253-.436,0.118,0.2,0.118-.2,0.083,0.143,7.894-13.6,16.594,0.063L892.936,34.3l8.352-14.138-16.594.063L876.441,6.005l-0.012.021-0.012-.021-8.252,14.219-16.594-.063ZM990.75,116.922l8.055,13.879,8.055-13.879,0.42,0v0l16.17,0.061-8.35-14.137,8.35-14.136-16.17.061h-0.42l-8.055-13.879L990.75,88.771h-0.419l-16.174-.061,8.351,14.136-8.351,14.137,16.174-.061v0ZM908.989,19.657L900.339,34.3l8.21,13.9,17.543,0.066,7.8-13.431L925.045,19.6Zm56.759,0-16.4-.061-8.006,13.792,8.635,14.875,16.2-.06L974.4,34.3Zm20.9,62.751,7.887-13.588-8.176-14.086-16.2.061-8.213,13.9,8.062,13.647Zm24.308,0,16.98-.064,8.07-13.646-8.22-13.9-17.54-.066-7.68,13.228Zm20.03,6.79-8.07,13.647,8.65,14.644,16.4,0.062,8.25-14.209-8.25-14.208Zm-64.955,28.292,8.651-14.645L966.623,89.2l-16.643-.063-8.247,14.208,8.247,14.209ZM946.3,82.776l16.564,0.063-0.306-.518h0.03L954.543,68.7l8.2-13.875-0.467,0,0.155-.263-16.126.061-8.265-14.24-8.264,14.24-16.594-.063L921.53,68.7l-8.353,14.139,16.6-.063,8.252,14.219,0.012-.02,0.012,0.02ZM914.127,68.7l-8.211-13.9-17.543-.066-7.888,13.589L888.66,82.41l17.406-.066ZM888.373,13.864l16.055-.06L913.079-.839l-8.063-13.649-16.643-.063L880.126-.342Zm72.944-14.7,8.65,14.642,16.4,0.062L994.61-.342,986.363-14.55l-16.984.063Zm28.726,21.063-16.594-.063L981.8,34.3l-8.2,13.876,0.467,0-0.155.263,16.127-.061,8.181,14.1,0.371-.639,0.083,0.143,7.892-13.6,16.6,0.063L1014.81,34.3l8.36-14.138-16.6.063L998.319,6.005l-0.012.021L998.3,6.005ZM1022.22,34.3l8.21,13.9,17.54,0.066,8.01-13.792L1047.34,19.6l-16.47.062Zm29.43,20.325-16.59-.063,8.35,14.138-8.35,14.139,16.59-.063,8.25,14.219,0.01-.02,0.02,0.02,8.25-14.219,16.59,0.063L1076.42,68.7l8.35-14.138-16.59.063-8.27-14.24Zm40.24,27.721,17.06,0.064,8-13.792-8.05-13.883-16.86.063-8.22,13.9Zm-20.03-34.082,16.86-.063,8.21-13.9-8.65-14.64-16.82-.064-8.12,14ZM1104.33,34.3l-8.35,14.139,16.6-.063,8.06,13.894,0.25-.436,0.12,0.2,0.12-.2,0.08,0.143,7.89-13.6,16.6,0.063L1137.35,34.3l8.35-14.138-16.6.063-8.25-14.219-0.01.021-0.01-.021-8.25,14.219-16.6-.063Zm20.57,34.026,8.17,14.085,17.41-.066,8.06-13.646-8.21-13.9-17.55-.066ZM1144.75,34.3l8.21,13.9,17.54,0.066,8.01-13.792L1169.88,19.6l-16.48.062Zm29.43,20.325-16.59-.063,8.35,14.138-8.35,14.139,16.59-.063,8.26,14.219,0.01-.02,0.01,0.02,8.25-14.219,16.6,0.063L1198.95,68.7l8.36-14.138-16.6.063-8.26-14.24Zm40.24,27.721,17.06,0.064,8.01-13.792-8.06-13.883-16.86.063-8.21,13.9Zm-20.03-34.082,16.86-.063,8.21-13.9-8.65-14.64L1194,19.6l-8.13,14ZM1226.87,34.3l-8.36,14.139,16.6-.063,8.06,13.894,0.26-.436,0.11,0.2,0.12-.2,0.08,0.143,7.9-13.6,16.59,0.063L1259.88,34.3l8.35-14.138-16.59.063-8.25-14.219-0.02.021-0.01-.021-8.25,14.219-16.59-.063Zm20.56,34.026,8.17,14.085,17.41-.066,8.06-13.646-8.21-13.9-17.54-.066ZM1267.28,34.3l8.21,13.9,17.55,0.066,8-13.792L1292.41,19.6l-16.48.062Zm29.44,20.325-16.6-.063,8.35,14.138-8.35,14.139,16.6-.063,8.25,14.219,0.01-.02,0.01,0.02,8.25-14.219,16.6,0.063L1321.49,68.7l8.35-14.138-16.6.063-8.26-14.24Zm40.23,27.721,17.07,0.064,8-13.792-8.06-13.883-16.86.063-8.21,13.9Zm-20.03-34.082,16.87-.063L1342,34.3l-8.65-14.64-16.82-.064-8.12,14ZM1349.4,34.3l-8.35,14.139,16.59-.063,8.07,13.894,0.25-.436,0.12,0.2,0.11-.2,0.09,0.143,7.89-13.6,16.6,0.063L1382.41,34.3l8.36-14.138-16.6.063-8.25-14.219-0.01.021-0.02-.021-8.25,14.219-16.59-.063Zm20.56,34.026,8.18,14.085,17.4-.066L1403.6,68.7l-8.21-13.9-17.54-.066ZM1389.82,34.3l8.21,13.9,17.54,0.066,7.8-13.431L1414.52,19.6l-16.05.06Zm29.43,20.325-16.59-.063,8.35,14.138-8.36,14.139,16.6-.063,8.25,14.219,0.01-.02,0.02,0.02,8.25-14.219,16.56,0.063-0.3-.518h0.03L1444.02,68.7l8.2-13.875-0.47,0,0.15-.263-16.12.061-8.27-14.24Zm40.23,27.722,16.65,0.063,7.89-13.588-8.18-14.086-16.2.061-8.22,13.9Zm-20.02-34.083,16.2-.06,8.22-13.9-8.65-14.641-16.4-.061-8.01,13.792ZM1471.28,34.3l-8.2,13.876,0.47,0-0.16.263,16.13-.061,8.18,14.1,0.37-.639,0.09,0.143,7.89-13.6,16.59,0.063L1504.29,34.3l8.35-14.138-16.59.063L1487.8,6.005l-0.02.021-0.01-.021-8.25,14.219-16.59-.063Zm20.77,33.665,8.38,14.445,16.99-.064,8.06-13.646-8.21-13.9-17.54-.066ZM1511.69,34.3l8.21,13.9,17.55,0.066,8-13.792L1536.82,19.6l-16.48.062Zm29.44,20.325-16.6-.063,8.36,14.138-8.36,14.139,16.6-.063,8.25,14.219,0.01-.02,0.01,0.02,8.26-14.219,16.59,0.063L1565.9,68.7l8.35-14.138-16.59.063-8.27-14.24Zm40.23,27.721,17.07,0.064,8-13.792-8.06-13.883-16.86.063-8.21,13.9Zm-20.02-34.082,16.86-.063,8.21-13.9-8.65-14.64-16.82-.064-8.12,14ZM1593.81,34.3l-8.35,14.139,16.59-.063,8.07,13.894,0.25-.436,0.12,0.2,0.12-.2,0.08,0.143,7.89-13.6,16.6,0.063L1626.82,34.3l8.36-14.138-16.6.063-8.25-14.219-0.01.021-0.01-.021-8.26,14.219-16.59-.063Zm20.56,34.026,8.18,14.085,17.4-.066,8.07-13.646-8.22-13.9-17.54-.066ZM1634.23,34.3l8.21,13.9,17.54,0.066,8.01-13.792L1659.35,19.6l-16.47.062Zm29.43,20.325-16.59-.063,8.35,14.138-8.35,14.139,16.59-.063,8.25,14.219,0.01-.02,0.02,0.02,8.25-14.219,16.59,0.063L1688.43,68.7l8.35-14.138-16.59.063-8.27-14.24Zm40.24,27.721,17.06,0.064,8.01-13.792-8.06-13.883-16.86.063-8.22,13.9Zm-20.03-34.082,16.86-.063,8.21-13.9-8.65-14.64-16.81-.064-8.13,14ZM1716.34,34.3l-8.35,14.139,16.6-.063,8.06,13.894,0.25-.436,0.12,0.2,0.12-.2,0.08,0.143,7.9-13.6,16.59,0.063L1749.36,34.3l8.35-14.138-16.59.063-8.26-14.219-0.01.021-0.01-.021-8.25,14.219-16.6-.063Zm20.57,34.026,8.17,14.085,17.41-.066,8.06-13.646-8.21-13.9-17.55-.066ZM1756.76,34.3l8.21,13.9,17.54,0.066,8.01-13.792L1781.89,19.6l-16.48.062Zm29.43,20.325-16.59-.063,8.35,14.138-8.35,14.139,16.59-.063,8.26,14.219,0.01-.02,0.01,0.02,8.25-14.219,16.6,0.063L1810.96,68.7l8.36-14.138-16.6.063-8.26-14.24Zm40.24,27.721,17.06,0.064,8.01-13.792-8.06-13.883-16.86.063-8.21,13.9ZM1806.4,48.264l16.86-.063,8.22-13.9-8.65-14.64-16.82-.064-8.13,14ZM1838.88,34.3l-8.35,14.139,16.59-.063,8.06,13.894,0.26-.436,0.11,0.2,0.12-.2,0.08,0.143,7.9-13.6,16.59,0.063L1871.89,34.3l8.35-14.138-16.59.063L1855.4,6.005l-0.02.021-0.01-.021-8.25,14.219-16.59-.063Zm40.41,0,8.21,13.9,17.55,0.066,8-13.792L1904.42,19.6l-16.48.062Zm5.58,20.5-17.54-.066-7.89,13.589,8.18,14.085,17.4-.066,8.06-13.646Zm-37.7,62.121h0.24l8.14,14.037,8.15-14.037h0.24l16.35,0.062-8.35-14.138,8.35-14.137-16.35.063h-0.24l-8.06-13.894-0.26.436-0.08-.143-7.89,13.6h-0.24l-16.36-.063,8.36,14.137-8.36,14.138Zm-15.64-14.076L1823.46,89.2l-17.06-.064-8.25,14.208,8.25,14.209,16.48-.062Zm-53.58,35.14-8.35,14.139,16.59-.062,8.27,14.24,8.26-14.24,16.6,0.062-8.36-14.139,8.36-14.138-16.6.064-8.25-14.22-0.01.021-0.01-.021-8.26,14.22-16.59-.064Zm-12.25-20.5,16.81,0.064,8.25-14.209-8.25-14.208-17.4.066-8.06,13.645Zm-41.06-.566h0.23l8.15,14.037,8.15-14.037h0.23l16.36,0.062-8.35-14.138,8.35-14.137-16.36.063h-0.23l-8.07-13.894-0.25.436-0.08-.143-7.9,13.6h-0.23l-16.36-.063,8.35,14.137-8.35,14.138Zm-15.65-14.076L1700.93,89.2l-17.06-.064-8.25,14.208,8.25,14.209,16.47-.062Zm-53.57,35.14-8.35,14.139,16.59-.062,8.26,14.24,8.27-14.24,16.59,0.062-8.35-14.139,8.35-14.138-16.59.064-8.25-14.22-0.02.021-0.01-.021-8.25,14.22-16.59-.064Zm-12.26-20.5,16.82,0.064,8.25-14.209-8.25-14.208-17.4.066-8.06,13.645Zm-41.05-.566h0.23l8.15,14.037,8.14-14.037h0.24l16.36,0.062-8.35-14.138,8.35-14.137-16.36.063h-0.24l-8.06-13.894-0.25.436-0.09-.143-7.89,13.6h-0.23l-16.36-.063,8.35,14.137-8.35,14.138Zm-15.65-14.076L1578.4,89.2l-17.06-.064-8.25,14.208,8.25,14.209,16.47-.062Zm-53.57,35.14-8.36,14.139,16.6-.062,8.26,14.24,8.27-14.24,16.59,0.062-8.35-14.139,8.35-14.138-16.59.064-8.26-14.22-0.01.021-0.01-.021-8.25,14.22-16.6-.064Zm-11.84-20.5,16.4,0.062,8.24-14.209-8.24-14.208-16.99.064-8.06,13.647Zm-41.24-.568v0l0.42,0,8.05,13.879,8.06-13.879,0.42,0v0l16.17,0.061-8.35-14.137,8.35-14.136-16.17.061h-0.42l-8.06-13.879-8.05,13.879h-0.42l-16.18-.061,8.36,14.136-8.36,14.137Zm-15.65-14.076L1456.1,89.2l-16.64-.063-8.25,14.208,8.25,14.209,16.05-.061Zm-53.15,35.14-8.36,14.139,16.6-.062,8.26,14.24,8.27-14.24,16.59,0.062-8.35-14.139,8.35-14.138-16.59.064-8.25-14.22-0.02.021-0.01-.021-8.25,14.22-16.59-.064Zm-12.26-20.5,16.82,0.064,8.25-14.209-8.25-14.208-17.41.066-8.06,13.645Zm-41.06-.566h0.24l8.15,14.037,8.14-14.037h0.24l16.36,0.062-8.35-14.138,8.35-14.137-16.36.063h-0.24l-8.06-13.894-0.25.436-0.09-.143-7.89,13.6h-0.24l-16.35-.063,8.35,14.137-8.35,14.138Zm-15.64-14.076L1333.99,89.2l-17.07-.064-8.24,14.208,8.24,14.209,16.48-.062Zm-53.58,35.14-8.35,14.139,16.6-.062,8.26,14.24,8.26-14.24,16.6,0.062-8.35-14.139,8.35-14.138-16.6.064-8.25-14.22-0.01.021-0.01-.021-8.25,14.22-16.6-.064Zm-12.25-20.5,16.82,0.064,8.24-14.209-8.24-14.208-17.41.066-8.06,13.645Zm-41.06-.566h0.24l8.14,14.037,8.15-14.037h0.24l16.35,0.062-8.35-14.138,8.35-14.137-16.35.063h-0.24l-8.06-13.894-0.26.436-0.08-.143-7.89,13.6h-0.24l-16.36-.063,8.35,14.137-8.35,14.138Zm-15.64-14.076L1211.45,89.2l-17.06-.064-8.25,14.208,8.25,14.209,16.48-.062Zm-53.58,35.14-8.35,14.139,16.59-.062,8.27,14.24,8.26-14.24,16.6,0.062-8.36-14.139,8.36-14.138-16.6.064-8.25-14.22-0.01.021-0.01-.021-8.26,14.22-16.59-.064Zm-12.25-20.5,16.81,0.064,8.25-14.209-8.25-14.208-17.4.066-8.06,13.645Zm-41.06-.566h0.23l8.15,14.037,8.15-14.037h0.23l16.36,0.062-8.35-14.138,8.35-14.137-16.36.063h-0.23l-8.07-13.894-0.25.436-0.08-.143-7.9,13.6h-0.23l-16.36-.063,8.35,14.137-8.35,14.138Zm-15.65-14.076L1088.92,89.2l-17.06-.064-8.25,14.208,8.25,14.209,16.47-.062Zm-53.57,35.14-8.35,14.139,16.59-.062,8.26,14.24,8.27-14.24,16.59,0.062-8.35-14.139,8.35-14.138-16.59.064-8.25-14.22-0.02.021-0.01-.021-8.25,14.22-16.59-.064Zm-121.88,0-8.353,14.139,16.6-.062,8.264,14.24,8.265-14.24,16.594,0.062-8.352-14.139,8.352-14.138-16.594.064-8.253-14.22-0.012.021-0.012-.021-8.252,14.22-16.594-.064Zm-12.254-20.5,16.816,0.064,8.247-14.209-8.247-14.208-17.4.066-8.061,13.645Zm-41.059-.566h0.236l8.146,14.037,8.147-14.037h0.236l16.358,0.062-8.351-14.138,8.351-14.137-16.358.063h-0.236l-8.064-13.894-0.253.436-0.083-.143-7.893,13.6h-0.236l-16.357-.063,8.351,14.137-8.352,14.138Zm-15.644-14.076L844.51,89.2l-17.063-.064L819.2,103.343l8.247,14.209,16.475-.062ZM799,137.986l-8.353,14.139,16.594-.062L815.5,166.3l8.264-14.24,16.595,0.062-8.352-14.139,8.352-14.138-16.595.064-8.252-14.22-0.012.021-0.012-.021-8.253,14.22-16.593-.064Zm-12.254-20.5,16.816,0.064,8.247-14.209-8.247-14.208-17.4.066-8.061,13.645Zm-41.059-.566h0.235l8.147,14.037,8.147-14.037h0.236l16.358,0.062-8.351-14.138,8.351-14.137-16.358.063h-0.236l-8.064-13.894-0.253.436-0.083-.143-7.894,13.6h-0.235l-16.358-.063,8.352,14.137-8.352,14.138ZM730.04,102.846L721.977,89.2l-17.063-.064-8.247,14.208,8.247,14.209,16.475-.062Zm-53.577,35.14-8.352,14.139,16.594-.062,8.265,14.24,8.264-14.24,16.595,0.062-8.352-14.139,8.352-14.138-16.595.064-8.252-14.22-0.012.021-0.012-.021-8.253,14.22-16.593-.064Zm-12.253-20.5,16.816,0.064,8.247-14.209-8.247-14.208-17.4.066-8.06,13.645Zm-41.059-.566h0.235l8.147,14.037,8.147-14.037h0.236l16.358,0.062-8.352-14.138,8.352-14.137-16.358.063H639.68l-8.064-13.894-0.253.436-0.083-.143-7.894,13.6h-0.235l-16.358-.063,8.352,14.137-8.352,14.138Zm-15.644-14.076L599.444,89.2l-17.063-.064-8.247,14.208,8.247,14.209,16.475-.062Zm-53.577,35.14-8.352,14.139,16.594-.062,8.265,14.24,8.264-14.24,16.6,0.062-8.352-14.139,8.352-14.138-16.6.064-8.252-14.22-0.012.021-0.012-.021-8.253,14.22-16.593-.064ZM542.1,117.49l16.4,0.062,8.247-14.209-8.247-14.208-16.984.064-8.062,13.647Zm-41.244-.568v0l0.419,0,8.055,13.879,8.054-13.879,0.419,0v0l16.174,0.061-8.351-14.137,8.351-14.136-16.174.061h-0.42l-8.054-13.879-8.055,13.879h-0.42L484.68,88.71l8.351,14.136-8.352,14.137Zm-15.644-14.076L477.145,89.2,460.5,89.135l-8.246,14.208,8.246,14.209,16.056-.061Zm-53.157,35.14L423.7,152.125l16.594-.062,8.265,14.24,8.264-14.24,16.594,0.062-8.351-14.139,8.351-14.138-16.594.064-8.252-14.22-0.012.021-0.012-.021-8.253,14.22-16.593-.064Zm-12.253-20.5,16.816,0.064,8.247-14.209-8.247-14.208L419.21,89.2l-8.061,13.645Zm-41.059-.566h0.235l8.147,14.037,8.147-14.037H395.5l16.358,0.062-8.351-14.138,8.351-14.137-16.358.063h-0.235l-8.064-13.894-0.253.436-0.083-.143-7.894,13.6H378.74l-16.358-.063,8.351,14.137-8.351,14.138ZM363.1,102.846L355.033,89.2l-17.064-.064-8.246,14.208,8.246,14.209,16.476-.062Zm-53.576,35.14-8.352,14.139,16.594-.062,8.265,14.24,8.264-14.24,16.594,0.062-8.351-14.139,8.351-14.138-16.594.064-8.252-14.22-0.012.021-0.012-.021-8.253,14.22-16.593-.064Zm-12.253-20.5,16.816,0.064,8.246-14.209-8.246-14.208-17.4.066-8.061,13.645Zm-41.059-.566h0.235l8.147,14.037,8.147-14.037h0.235l16.358,0.062-8.351-14.138,8.351-14.137-16.358.063h-0.235l-8.064-13.894-0.253.436-0.083-.143-7.894,13.6h-0.235l-16.358-.063,8.351,14.137-8.352,14.138Zm-15.645-14.076L232.5,89.2l-17.064-.064-8.246,14.208,8.246,14.209,16.476-.062Zm-53.576,35.14-8.352,14.139,16.594-.062,8.265,14.24,8.264-14.24,16.594,0.062L220,137.986l8.351-14.138-16.594.064-8.252-14.22-0.012.021-0.012-.021-8.253,14.22-16.594-.064Zm-12.254-20.5,16.817,0.064,8.246-14.209-8.246-14.208-17.4.066-8.061,13.645Zm-41.059-.566h0.236l8.147,14.037,8.146-14.037h0.236l16.358,0.062-8.351-14.138L166.8,88.709l-16.358.063H150.2l-8.063-13.894-0.253.436-0.083-.143-7.894,13.6h-0.236l-16.357-.063,8.351,14.137-8.352,14.138Zm-15.644-14.076L109.966,89.2,92.9,89.135l-8.247,14.208L92.9,117.552l16.476-.062Zm-53.576,35.14L56.1,152.125l16.594-.062,8.264,14.24,8.265-14.24,16.594,0.062-8.352-14.139,8.352-14.138-16.594.064-8.253-14.22-0.012.021-0.012-.021-8.252,14.22L56.1,123.848ZM52.2,117.488l16.816,0.064,8.247-14.209L69.016,89.135l-17.4.066L43.55,102.846ZM11.376,88.771l-16.593-.063,8.352,14.138-8.352,14.139,16.594-.063,8.265,14.24,8.264-14.24L44.5,116.985l-8.352-14.139L44.5,88.708l-16.594.063-8.182-14.1-0.371.639-0.083-.143ZM2.846,34.3L-5.506,48.439l16.594-.063,8.182,14.1,0.371-.639,0.083,0.143,7.894-13.6,16.594,0.063L35.86,34.3l8.352-14.138-16.594.063L19.365,6.005l-0.012.021-0.012-.021L11.088,20.224l-16.593-.063ZM-33.7-14.914l-8.265-14.24-8.265,14.24-16.593-.063L-58.473-.839-66.825,13.3l16.594-.063,8.265,14.24,8.265-14.24L-17.107,13.3-25.459-.839l8.352-14.138ZM-18.057-.839L-9.407,13.8,7.409,13.864,15.655-.342,7.409-14.55l-17.4.066ZM35.86-34.986l8.352-14.138-16.594.063L19.353-63.3l-8.264,14.24-16.593-.063L2.846-34.986-5.506-20.847l16.594-.063,8.253,14.22,0.012-.021,0.012,0.021,8.253-14.22,16.594,0.063Zm12.5,20.5L31.3-14.55,23.05-.342,31.3,13.864,47.772,13.8,56.422-.839Zm40.472-.428H88.6L80.449-28.951,72.3-14.914H72.067l-16.357-.062L64.06-.839,55.709,13.3l16.358-.062H72.3l8.147,14.037L88.6,13.235h0.236L105.189,13.3,96.838-.839l8.351-14.137ZM104.476-.839l8.65,14.64,16.816,0.063L138.188-.342,129.942-14.55l-17.4.066Zm53.917-34.147,8.351-14.138-16.594.063L141.886-63.3l-8.265,14.24-16.593-.063,8.351,14.139-8.352,14.139,16.594-.063,8.253,14.22,0.012-.021L141.9-6.691l8.252-14.22,16.594,0.063Zm12.5,20.5-17.064-.064L145.583-.342l8.246,14.206,16.476-.062,8.65-14.642Zm40.471-.428h-0.235l-8.147-14.037-8.147,14.037H194.6l-16.358-.062L186.593-.839,178.242,13.3l16.358-.062h0.235l8.147,14.037,8.147-14.037h0.235L227.722,13.3,219.371-.839l8.351-14.137ZM227.009-.839l8.65,14.64,16.816,0.063L260.722-.342,252.475-14.55l-17.4.066Zm53.917-34.147,8.351-14.138-16.594.063L264.419-63.3l-8.265,14.24-16.593-.063,8.351,14.139L239.56-20.847l16.594-.063,8.253,14.22,0.012-.021,0.012,0.021,8.252-14.22,16.594,0.063Zm12.5,20.5-17.064-.064L268.116-.342l8.246,14.206,16.476-.062,8.65-14.642Zm40.471-.428h-0.235l-8.147-14.037-8.147,14.037h-0.235l-16.358-.062L309.127-.839,300.775,13.3l16.358-.062h0.235l8.147,14.037,8.147-14.037H333.9L350.255,13.3,341.9-.839l8.351-14.137ZM349.543-.839l8.649,14.64,16.816,0.063L383.255-.342,375.008-14.55l-17.4.066Zm61.962-20.526-8.046-13.621,8.351-14.138-16.594.063L386.952-63.3l-8.265,14.24-16.593-.063,8.351,14.139-8.352,14.139,16.594-.063,8.253,14.22,0.012-.021,0.012,0.021,8.252-14.22,16.565,0.063-0.306-.518h0.03Zm4.034,6.878L398.9-14.55,390.649-.342,398.9,13.864l16.056-.06L423.6-.839Zm40.656-.427v0l-0.419,0-8.054-13.879-8.055,13.879-0.419,0v0l-16.173-.061L431.424-.839,423.073,13.3l16.173-.061h0.42l8.055,13.879,8.054-13.879h0.42L472.369,13.3,464.018-.839l8.351-14.137ZM471.84-.839L480.49,13.8l16.4,0.062L505.133-.342,496.886-14.55l-16.984.063Zm53.5-34.147,8.352-14.138-16.595.063L508.83-63.3l-8.265,14.24-16.593-.063,8.351,14.139-8.352,14.139,16.594-.063,8.253,14.22,0.012-.021,0.012,0.021,8.252-14.22,16.595,0.063Zm12.5,20.5-17.063-.064L512.527-.342l8.247,14.206,16.475-.062L545.9-.839Zm40.472-.428h-0.236l-8.147-14.037-8.147,14.037h-0.235l-16.358-.062L553.538-.839,545.186,13.3l16.358-.062h0.235l8.147,14.037,8.147-14.037h0.236L594.667,13.3,586.315-.839l8.352-14.137ZM593.954-.839L602.6,13.8l16.816,0.063L627.666-.342,619.419-14.55l-17.4.066ZM647.87-34.986l8.352-14.138-16.6.063L631.363-63.3,623.1-49.062l-16.593-.063,8.352,14.139L606.5-20.847,623.1-20.91l8.253,14.22,0.012-.021,0.012,0.021,8.252-14.22,16.6,0.063Zm12.5,20.5-17.063-.064L635.06-.342l8.247,14.206,16.475-.062L668.433-.839Zm40.472-.428h-0.236l-8.147-14.037-8.146,14.037h-0.236l-16.357-.062L676.071-.839,667.719,13.3l16.358-.062h0.236l8.146,14.037,8.147-14.037h0.236L717.2,13.3,708.849-.839,717.2-14.976ZM716.487-.839l8.649,14.64,16.816,0.063L750.2-.342,741.952-14.55l-17.4.066ZM770.4-34.986l8.352-14.138-16.594.063L753.9-63.3l-8.264,14.24-16.594-.063,8.352,14.139-8.353,14.139,16.595-.063,8.252,14.22,0.012-.021,0.012,0.021,8.253-14.22,16.594,0.063Zm12.5,20.5L765.84-14.55,757.593-.342l8.247,14.206,16.475-.062L790.966-.839Zm40.472-.428h-0.236l-8.147-14.037-8.146,14.037H806.61l-16.357-.062L798.6-.839,790.252,13.3l16.358-.062h0.236l8.146,14.037,8.147-14.037h0.236L839.733,13.3,831.382-.839l8.351-14.137ZM839.02-.839l8.649,14.64,16.816,0.063L872.732-.342,864.485-14.55l-17.4.066Zm62.268-48.286-16.594.063L876.429-63.3l-8.264,14.24-16.594-.063,8.352,14.139L851.57-20.847l16.595-.063,8.252,14.22,0.012-.021,0.012,0.021,8.253-14.22,16.564,0.063-0.306-.518h0.03l-8.046-13.621ZM1014.81-34.986l8.36-14.138-16.6.063L998.307-63.3l-8.264,14.24-16.594-.063L981.8-34.986l-8.352,14.139,16.594-.063L998.3-6.691l0.012-.021,0.012,0.021,8.251-14.22,16.6,0.063Zm12.5,20.5-17.06-.064L1002-.342l8.25,14.206,16.48-.062,8.65-14.642Zm40.48-.428h-0.24l-8.15-14.037-8.14,14.037h-0.24l-16.36-.062,8.36,14.137L1034.66,13.3l16.36-.062h0.24l8.14,14.037,8.15-14.037h0.24l16.35,0.062L1075.79-.839l8.35-14.137ZM1083.43-.839l8.65,14.64,16.82,0.063,8.24-14.206L1108.9-14.55l-17.41.066Zm53.92-34.147,8.35-14.138-16.6.063-8.26-14.24-8.26,14.24-16.6-.063,8.35,14.139-8.35,14.139,16.6-.063,8.25,14.22,0.01-.021,0.01,0.021,8.25-14.22,16.6,0.063Zm12.5,20.5-17.07-.064L1124.54-.342l8.24,14.206,16.48-.062,8.65-14.642Zm40.47-.428h-0.24l-8.14-14.037-8.15,14.037h-0.24l-16.35-.062,8.35,14.137L1157.2,13.3l16.35-.062h0.24l8.15,14.037,8.14-14.037h0.24l16.36,0.062L1198.33-.839l8.35-14.137ZM1205.96-.839l8.65,14.64,16.82,0.063,8.25-14.206-8.25-14.208-17.41.066Zm53.92-34.147,8.35-14.138-16.59.063-8.27-14.24-8.26,14.24-16.59-.063,8.35,14.139-8.36,14.139,16.6-.063,8.25,14.22,0.01-.021,0.02,0.021,8.25-14.22,16.59,0.063Zm12.5,20.5-17.06-.064L1247.07-.342l8.25,14.206,16.47-.062,8.65-14.642Zm40.47-.428h-0.23l-8.15-14.037-8.15,14.037h-0.23l-16.36-.062,8.35,14.137L1279.73,13.3l16.36-.062h0.23l8.15,14.037,8.15-14.037h0.23l16.36,0.062L1320.86-.839l8.35-14.137ZM1328.5-.839l8.65,14.64,16.81,0.063,8.25-14.206-8.25-14.208-17.4.066Zm61.96-20.526-8.05-13.621,8.36-14.138-16.6.063-8.26-14.24-8.27,14.24-16.59-.063,8.35,14.139-8.35,14.139,16.59-.063,8.25,14.22,0.02-.021,0.01,0.021,8.25-14.22,16.57,0.063-0.31-.518h0.03Zm4.03,6.878-16.64-.063L1369.6-.342l8.25,14.206,16.06-.06,8.65-14.643Zm40.66-.427v0l-0.42,0-8.05-13.879-8.06,13.879-0.42,0v0l-16.17-.061,8.35,14.137L1402.03,13.3l16.17-.061h0.42l8.06,13.879,8.05-13.879h0.42l16.17,0.061L1442.97-.839l8.35-14.137ZM1450.79-.839l8.65,14.642,16.4,0.062,8.25-14.206-8.25-14.208-16.98.063Zm53.5-34.147,8.35-14.138-16.59.063-8.27-14.24-8.26,14.24-16.59-.063,8.35,14.139-8.35,14.139,16.59-.063,8.25,14.22,0.01-.021,0.02,0.021,8.25-14.22,16.59,0.063Zm12.5,20.5-17.06-.064L1491.48-.342l8.25,14.206,16.47-.062,8.65-14.642Zm40.47-.428h-0.23l-8.15-14.037-8.15,14.037h-0.23l-16.36-.062,8.35,14.137L1524.14,13.3l16.36-.062h0.23l8.15,14.037,8.15-14.037h0.23l16.36,0.062L1565.27-.839l8.35-14.137ZM1572.91-.839l8.65,14.64,16.81,0.063,8.25-14.206-8.25-14.208-17.4.066Zm53.91-34.147,8.36-14.138-16.6.063-8.26-14.24-8.27,14.24-16.59-.063,8.35,14.139-8.35,14.139,16.59-.063,8.26,14.22,0.01-.021,0.01,0.021,8.25-14.22,16.6,0.063Zm12.5,20.5-17.06-.064L1614.01-.342l8.25,14.206,16.48-.062,8.65-14.642Zm40.48-.428h-0.24l-8.15-14.037-8.14,14.037h-0.24l-16.36-.062,8.36,14.137L1646.67,13.3l16.36-.062h0.24l8.14,14.037,8.15-14.037h0.24l16.35,0.062L1687.8-.839l8.35-14.137ZM1695.44-.839l8.65,14.64,16.82,0.063,8.24-14.206-8.24-14.208-17.41.066Zm53.92-34.147,8.35-14.138-16.59.063-8.27-14.24-8.26,14.24-16.6-.063,8.35,14.139-8.35,14.139,16.6-.063,8.25,14.22,0.01-.021,0.01,0.021,8.26-14.22,16.59,0.063Zm12.5,20.5-17.07-.064L1736.55-.342l8.24,14.206,16.48-.062,8.65-14.642Zm40.47-.428h-0.24l-8.14-14.037-8.15,14.037h-0.24l-16.35-.062,8.35,14.137L1769.21,13.3l16.35-.062h0.24l8.15,14.037,8.14-14.037h0.24l16.36,0.062L1810.34-.839l8.35-14.137ZM1817.97-.839l8.65,14.64,16.82,0.063,8.25-14.206-8.25-14.208-17.4.066Zm53.92-34.147,8.35-14.138-16.59.063-8.27-14.24-8.26,14.24-16.59-.063,8.35,14.139-8.35,14.139,16.59-.063,8.25,14.22,0.01-.021,0.02,0.021,8.25-14.22,16.59,0.063Zm12.5,20.5-17.06-.064L1859.08-.342l8.25,14.206,16.47-.062,8.65-14.642Zm40.24,27.721,16.59,0.063L1932.87-.839l8.35-14.138-16.59.063-8.27-14.24-8.26,14.24-16.6-.063,8.36,14.138L1891.5,13.3l16.6-.063,8.26,14.24ZM1933.5,68.7l8.35-14.138-16.59.063-8.27-14.24-8.26,14.24-16.6-.063,8.35,14.138-8.35,14.139,16.6-.063,8.25,14.219,0.01-.02,0.01,0.02,8.26-14.219,16.59,0.063ZM1946,89.2l-17.07-.064-8.24,14.208,8.24,14.209,16.48-.062,8.65-14.644Zm56.83-.492-16.6.063-8.26-14.24-8.27,14.24-16.59-.063,8.35,14.138-8.35,14.139,16.59-.063,8.27,14.24,8.26-14.24,16.6,0.063-8.35-14.139Z"/>
</svg>
