<svg xmlns="http://www.w3.org/2000/svg" width="17.97" height="17.969" viewBox="0 0 17.97 17.969">
  <defs>
    <style>
      .cls-1 {
        fill: #fff;
        fill-rule: evenodd;
      }
    </style>
  </defs>
  <path id="phone.svg" class="cls-1" d="M1615.12,63.995h-0.04a10.453,10.453,0,0,1-4.02-.936,0.708,0.708,0,0,1-.37-0.92,0.7,0.7,0,0,1,.92-0.371s0.01,0,.01,0a9.085,9.085,0,0,0,3.47.815h0.03a4.319,4.319,0,0,0,3.13-1.138h0a1.267,1.267,0,0,0-.06-1.761c-1.89-1.815-2.78-1.684-3.6-.881l-1.31,1.3a0.713,0.713,0,0,1-.78.144,14.4,14.4,0,0,1-3.84-2.822l-0.09-.1a14.2,14.2,0,0,1-2.82-3.827,0.7,0.7,0,0,1,.14-0.78l1.3-1.311c0.81-.827.94-1.714-0.88-3.6a1.269,1.269,0,0,0-1.76-.066l-0.01.006a4.372,4.372,0,0,0-1.13,3.163c0.01,2.523,1.44,5.451,3.82,7.836,0.01,0,.01,0,0.01.006a15.626,15.626,0,0,0,1.55,1.342,0.7,0.7,0,0,1-.85,1.123s0,0-.01-0.007v0a17.636,17.636,0,0,1-1.68-1.456V59.753h0c-2.65-2.647-4.24-5.943-4.25-8.83a5.711,5.711,0,0,1,1.56-4.176c0.01-.006.02-0.018,0.03-0.024l0.02-.018a2.673,2.673,0,0,1,3.71.132,6.6,6.6,0,0,1,1.72,2.588,2.889,2.889,0,0,1-.85,2.972h0l-0.94.952a14.018,14.018,0,0,0,2.31,2.99l0.1,0.1a14,14,0,0,0,2.99,2.313l0.95-.941,0.01-.006a2.89,2.89,0,0,1,2.97-.838,6.409,6.409,0,0,1,2.58,1.713,2.668,2.668,0,0,1,.14,3.708l-0.02.024c-0.01.006-.02,0.018-0.03,0.024A5.673,5.673,0,0,1,1615.12,63.995Zm0.43-10.286a0.7,0.7,0,0,0,.47-0.87v0l-0.01-.03a4.026,4.026,0,0,0-2.86-2.828,0.692,0.692,0,0,0-.86.483,0.7,0.7,0,0,0,.48.868s0,0,.01,0a2.4,2.4,0,0,1,1.2.689,2.491,2.491,0,0,1,.68,1.18l0.01,0.036a0.713,0.713,0,0,0,.68.5,0.8,0.8,0,0,0,.2-0.03h0Zm3.69,0.881a7.768,7.768,0,0,0-7.71-7.824h-0.12a0.7,0.7,0,0,0,0,1.4h0.04a6.367,6.367,0,0,1,6.38,6.354v0.062a0.711,0.711,0,0,0,.7.707h0.01a0.7,0.7,0,0,0,.7-0.7h0Z" transform="translate(-1602 -46.031)"/>
</svg>
