<svg xmlns="http://www.w3.org/2000/svg" width="57.375" height="46.66" viewBox="0 0 57.375 46.66">
  <defs>
    <style>
      .cls-1 {
        fill: #231f1c;
        fill-rule: evenodd;
        opacity: 0.1;
      }
    </style>
  </defs>
  <path id="review.svg" class="cls-1" d="M854.862,4811.93a11.7,11.7,0,0,0,11.845-11.85,11.293,11.293,0,0,0-3.424-8.6,11.789,11.789,0,0,0-8.421-3.24,10.564,10.564,0,0,0-6.847,2.41,12.3,12.3,0,0,1-.556-3.89q0-5.37,4.165-10.55a24.984,24.984,0,0,1,9.9-7.58l-1.666-3.33q-9.625,4.44-14.343,11.84a30.317,30.317,0,0,0-4.719,16.65,22.479,22.479,0,0,0,3.146,12.22,12.061,12.061,0,0,0,10.919,5.92h0Zm-31.463,0a11.7,11.7,0,0,0,11.845-11.85,11.293,11.293,0,0,0-3.424-8.6,11.789,11.789,0,0,0-8.421-3.24,10.564,10.564,0,0,0-6.847,2.41,12.3,12.3,0,0,1-.556-3.89q0-5.37,4.165-10.55a24.984,24.984,0,0,1,9.9-7.58l-1.666-3.33q-9.624,4.44-14.343,11.84a30.317,30.317,0,0,0-4.719,16.65,22.479,22.479,0,0,0,3.146,12.22,12.063,12.063,0,0,0,10.919,5.92h0Z" transform="translate(-809.344 -4765.28)"/>
</svg>
