<svg xmlns="http://www.w3.org/2000/svg" width="171.063" height="631.122" viewBox="0 0 171.063 631.122">
  <defs>
    <style>
      .cls-1 {
        fill: #231f1c;
        fill-rule: evenodd;
        opacity: 0.05;
      }
    </style>
  </defs>
  <path id="Sayohat.svg" class="cls-1" d="M248.4,1407.19a53.688,53.688,0,0,0,3.527,19.76,31.862,31.862,0,0,0,10.845,14.37q7.32,5.385,17.9,5.38a31.417,31.417,0,0,0,16.136-4.06,43.436,43.436,0,0,0,12.08-10.4q5.116-6.36,11.991-16.93,8.82-13.755,15.872-20.11a24.446,24.446,0,0,1,16.929-6.35q9.522,0,14.637,6.18t5.114,15.69q0,15.705-12.256,23.28-12.255,7.59-32.007,8.82v4.05q36.5,0,47.613.71v-4.06a20.9,20.9,0,0,1-5.907-1.41,2.723,2.723,0,0,1-1.852-2.47q0-2.115,2.469-5.99a54.19,54.19,0,0,0,4.761-11.99,64.229,64.229,0,0,0,1.764-16.41,60.591,60.591,0,0,0-3.88-22.13,35.373,35.373,0,0,0-11.551-15.78q-7.671-5.82-18.957-5.82a31.918,31.918,0,0,0-15.783,3.79,43.321,43.321,0,0,0-11.9,9.79,172.944,172.944,0,0,0-11.992,16.4l-3.88,5.64q-6.522,9.885-10.316,14.64a30,30,0,0,1-8.376,7.41,21.177,21.177,0,0,1-10.757,2.64q-8.288,0-13.138-5.38t-4.85-14.02a23.747,23.747,0,0,1,5.379-15.43,35.285,35.285,0,0,1,14.019-10.23,58.372,58.372,0,0,1,18.164-4.32v-4.05q-28.39,0-40.207-.88v4.05a21.607,21.607,0,0,1,5.908,1.41,2.724,2.724,0,0,1,1.851,2.47,6.223,6.223,0,0,1-.7,2.56c-0.469,1-1.058,2.15-1.764,3.44a55.012,55.012,0,0,0-5.114,11.11q-1.761,5.46-1.763,14.63h0Zm128.38-80.41q0-17.1-14.284-25.92,6.526-.18,10.405-4.06t3.879-13.58q0-11.46-6.524-19.4l-3,1.77c2,2.47,3,4.58,3,6.35a3.042,3.042,0,0,1-1.764,3.08,15.943,15.943,0,0,1-6,.8H314.527a70.38,70.38,0,0,0-15.342,1.32,19.48,19.48,0,0,0-9.523,5.2,23.567,23.567,0,0,0-6,10.58,56.46,56.46,0,0,0-1.763,14.99,68.743,68.743,0,0,0,1.587,15.26,40.684,40.684,0,0,0,4.409,11.72,23.576,23.576,0,0,0,6.436,7.32,15.813,15.813,0,0,0,18.076-.97q3.88-3.345,3.879-9.52a14.537,14.537,0,0,0-3.527-9.88,11.979,11.979,0,0,0-9.522-4.05,13.155,13.155,0,0,0-8.289,2.73,16.383,16.383,0,0,0-5.29,7.67q-4.233-4.41-4.232-12.87,0-7.23,4.144-10.67t11.551-3.44H314.88a8.4,8.4,0,0,1,7.494,4.5q2.736,4.485,6.084,14.19a148.683,148.683,0,0,0,6,15.08,28.3,28.3,0,0,0,8.024,10.05q5.2,4.155,13.138,4.15,9.522,0,15.342-5.56t5.819-16.84h0Zm-11.286-13.58a10.023,10.023,0,0,1-3.439,7.94q-3.438,3-10.669,3-8.286,0-12.7-3.53a42.814,42.814,0,0,1-8.817-10.41q-4.232-6.87-7.759-8.99h36.151q7.233,5.115,7.23,11.99h0ZM284.9,1187.64q0,8.82-.529,17.11H287.9q1.234-13.05,14.107-13.05a45.167,45.167,0,0,1,14.108,2.82l33.859,12.17L297.95,1228.2a13.516,13.516,0,0,1-4.937,1.24q-3.348,0-4.145-2.74a32.409,32.409,0,0,1-.793-8.37h-3.7q1.057,14.1,1.058,24.51,0,12.525-1.058,24.16h3.7a9.164,9.164,0,0,1,1.94-5.47q1.942-2.64,7.935-5.47l85-37.38,8.464,2.82q13.929,5.115,13.932,16.05a32.527,32.527,0,0,1-.177,4.05,13.994,13.994,0,0,0-4.673-6.52,11.118,11.118,0,0,0-6.789-2.29,9.923,9.923,0,0,0-8.2,3.61q-2.91,3.615-2.91,9.61,0,6.36,3.262,10.23a10.812,10.812,0,0,0,8.729,3.88,11.587,11.587,0,0,0,10.493-5.91,24.973,24.973,0,0,0,3.615-13.31q0-10.23-4.408-15.34-3.353-4.23-12.521-7.76l-88.7-31.57q-7.228-2.64-10.669-5.55a13.533,13.533,0,0,1-4.5-6.62h-3.527a131.9,131.9,0,0,1,.529,13.58h0Zm-3-61.72q0,20.1,11.55,31.66t36.592,11.55q25.044,0,36.5-11.55t11.463-31.66q0-20.28-11.463-31.74t-36.5-11.46q-25.038,0-36.592,11.46t-11.55,31.74h0Zm3.527,0q0-7.575,10.933-12.08t33.682-4.5q22.749,0,33.595,4.41t10.845,12.17q0,7.59-10.934,12.08t-33.506,4.5q-22.571,0-33.594-4.5t-11.021-12.08h0Zm-47.79-88.17q2.471,10.41,2.469,25.75c0,3.52-.177,7.17-0.53,10.93h3.7q0-6.165,3.7-8.73t11.815-2.56H359.143q7.233,0,9.963,2.56t2.734,8.73h3.7q-0.7-18.345-.7-24.34,0-4.935.7-21.86h-3.7q0,5.28-2.734,7.4t-9.963,2.12h-49.2q-8.816,0-14.549-5.03a15.881,15.881,0,0,1-5.731-12.43c0-4.11,1.234-6.97,3.7-8.55s6.115-2.38,10.934-2.38h54.844q7.233,0,9.963,2.11t2.734,7.41h3.7q-0.7-16.935-.7-22.925,0-4.935.7-23.278h-3.7q0,6.348-2.734,8.817t-9.963,2.469H311.705a61.51,61.51,0,0,0-14.2,1.323,20.032,20.032,0,0,0-8.729,4.32Q281.9,995.252,281.9,1009q0,20.82,16.4,28.75H237.64Zm139.137-94.7q0-17.1-14.284-25.923,6.526-.174,10.405-4.056t3.879-13.579q0-11.46-6.524-19.4l-3,1.764q3,3.7,3,6.348a3.051,3.051,0,0,1-1.764,3.086,15.992,15.992,0,0,1-6,.794H314.527a70.3,70.3,0,0,0-15.342,1.322,19.461,19.461,0,0,0-9.523,5.2,23.562,23.562,0,0,0-6,10.58,56.481,56.481,0,0,0-1.763,14.99,68.663,68.663,0,0,0,1.587,15.254,40.71,40.71,0,0,0,4.409,11.727,23.613,23.613,0,0,0,6.436,7.318,15.811,15.811,0,0,0,18.076-.969q3.88-3.348,3.879-9.523a14.519,14.519,0,0,0-3.527-9.876,11.974,11.974,0,0,0-9.522-4.056,13.146,13.146,0,0,0-8.289,2.734,16.406,16.406,0,0,0-5.29,7.671q-4.233-4.405-4.232-12.873,0-7.23,4.144-10.669t11.551-3.439H314.88a8.4,8.4,0,0,1,7.494,4.5q2.736,4.5,6.084,14.2a148.881,148.881,0,0,0,6,15.077,28.311,28.311,0,0,0,8.024,10.052q5.2,4.146,13.138,4.144,9.522,0,15.342-5.555t5.819-16.841h0Zm-11.286-13.579a10.008,10.008,0,0,1-3.439,7.936q-3.438,3-10.669,3-8.286,0-12.7-3.527a42.875,42.875,0,0,1-8.817-10.4q-4.232-6.878-7.759-8.993h36.151q7.233,5.117,7.23,11.991h0Zm-110.04-90.288q5.646,10.76,5.643,25.394h23.278v14.814H287.9V864.58H347.5a68.95,68.95,0,0,0,15.254-1.322,19.011,19.011,0,0,0,9.258-5.026q5.993-5.993,6-17.635,0-17.458-18.164-24.159l-1.587,3q10.581,4.41,10.581,11.991,0,4.059-2.2,5.908t-7.494,1.851H287.9V818.378h-3.527v20.808H255.451Z" transform="translate(-237.625 -816.438)"/>
</svg>
