<svg xmlns="http://www.w3.org/2000/svg" width="814.66" height="214.9" viewBox="0 0 814.66 214.9">
  <defs>
    <style>
      .cls-1 {
        fill: #231f1c;
        fill-rule: evenodd;
        opacity: 0.05;
      }
    </style>
  </defs>
  <path id="Travel.svg" class="cls-1" d="M1279.7,7854.34v-4.05q-11.16.6-31.87,0.6h-14.41l-37.35,98.23-41-98.83q-13.395.6-32.07,0.6-11.175,0-17.66-.6v4.05a35.642,35.642,0,0,1,9.84,1.63,7.04,7.04,0,0,1,4.27,4.67q1.11,3.45,1.11,11.16v91.33a81.61,81.61,0,0,1-1.11,15.62q-1.125,5.28-4.27,7.71-3.15,2.445-9.84,3.45v4.06q6.5-.6,17.66-0.6,13.995,0,21.92.6v-4.06q-9.135-1.005-13.19-3.55a12.041,12.041,0,0,1-5.28-8.11q-1.215-5.58-1.22-17.56v-97.21l54.81,130.7h3.24l48.92-127.86v106.14q0,7.71-1.22,11.16a7.267,7.267,0,0,1-4.56,4.67c-2.24.81-5.79,1.36-10.66,1.62v4.06q10.35-.6,32.07-0.6,20.7,0,31.87.6v-4.06a34.98,34.98,0,0,1-9.85-1.62,6.983,6.983,0,0,1-4.26-4.67q-1.11-3.45-1.11-11.16V7871.8q0-7.71,1.11-11.16a7.032,7.032,0,0,1,4.16-4.67q3.045-1.215,9.95-1.63h0Zm110.22,32.48q-11.985,2.835-29.64,2.84-6.09,0-12.58-.61v4.26q7.1,0,10.04,4.26t2.95,13.6v53.17a24.947,24.947,0,0,1-5.79,16.75q-5.775,6.8-13.9,6.8-7.11,0-9.64-4.27-2.55-4.26-2.54-12.78v-84.02q-11.985,2.835-29.64,2.84-6.285,0-12.58-.61v4.26q7.1,0,10.05,4.26,2.94,4.26,2.94,13.6v51.35a70.986,70.986,0,0,0,1.52,16.33,24.511,24.511,0,0,0,4.77,10.05q6.9,7.92,22.13,7.92,23.34,0,32.68-18.88v18.27q11.97-2.85,29.63-2.84,6.3,0,12.59.6v-4.26q-7.11,0-10.05-4.26t-2.94-13.6v-85.03Zm62.11-.61q-14.625,0-24.77,7.51t-10.15,20.49a27.77,27.77,0,0,0,3.35,13.6,42.4,42.4,0,0,0,8.12,10.56q4.77,4.455,13.91,11.77,7.71,6.09,11.57,9.54a31.383,31.383,0,0,1,6.39,7.91,20.2,20.2,0,0,1,2.54,10.15q0,7.305-4.16,10.86a15.02,15.02,0,0,1-10.05,3.55q-23.34,0-27.4-37.35h-4.27q0,29.025-.81,40.59h4.26a14.041,14.041,0,0,1,2.34-5.78,3.135,3.135,0,0,1,3.55-1.32,100.73,100.73,0,0,1,9.34,4.26q7.92,4.26,19.08,4.27a49.4,49.4,0,0,0,19.28-3.66,32.713,32.713,0,0,0,13.91-10.55,25.684,25.684,0,0,0,5.17-15.83q0-10.965-5.88-18.27t-18.27-16.64l-5.89-4.26q-9.945-7.11-14.61-12.08a16.7,16.7,0,0,1-4.67-11.87q0-6.09,3.96-9.54a14.7,14.7,0,0,1,10.04-3.45q11.775,0,17.97,9.03,6.18,9.045,8.01,22.43h4.27q0-25.365.81-35.72h-4.26a12.411,12.411,0,0,1-1.73,5.58,3.779,3.779,0,0,1-3.14,1.93,6.56,6.56,0,0,1-3.66-1.42,34.7,34.7,0,0,0-9.94-4.36,49.67,49.67,0,0,0-14.21-1.93h0Zm94.99-51.15q-11.985,2.85-29.64,2.85-6.075,0-12.58-.61v4.26c4.74,0,8.08,1.42,10.05,4.26s2.94,7.38,2.94,13.6V7975.1q0,8.325-2.94,11.47c-1.97,2.1-5.31,3.14-10.05,3.14v4.26q21.1-.81,28.01-0.81,6.09,0,27.2.81v-4.26q-7.3,0-10.15-3.14t-2.84-11.47V7835.06Zm49.93,1.63q-8.52,0-13.5,4.16t-4.97,11.46q0,7.32,4.97,11.47,4.98,4.17,13.5,4.16c5.69,0,10.18-1.38,13.5-4.16s4.97-6.59,4.97-11.47-1.66-8.69-4.97-11.46-7.81-4.16-13.5-4.16h0Zm14.01,50.13q-11.58,2.835-29.64,2.84-6.09,0-12.58-.61v4.26q7.3,0,10.15,4.26t2.84,13.6v63.93q0,8.325-2.84,11.47t-10.15,3.14v4.26q21.915-.81,28.21-0.81,6.705,0,27,.81v-4.26q-7.11,0-10.05-3.14t-2.94-11.47v-88.28Zm184.91,88.28v-54.59a76.906,76.906,0,0,0-1.42-16.44,22.08,22.08,0,0,0-4.67-9.95q-6.9-7.9-22.33-7.91a41.561,41.561,0,0,0-19.89,4.56q-8.52,4.575-13.8,15.53-1.215-8.115-5.08-12.18-6.9-7.9-22.32-7.91-22.53,0-31.47,18.87v-18.26q-11.565,2.835-29.63,2.84-6.09,0-12.59-.61v4.26q7.32,0,10.15,4.26,2.85,4.26,2.84,13.6v63.93q0,8.325-2.84,11.47t-10.15,3.14v4.26q21.93-.81,28.02-0.81,6.075,0,23.95.81v-4.26c-3.66,0-6.19-1.04-7.61-3.14s-2.14-5.92-2.14-11.47v-56.42a24.92,24.92,0,0,1,5.79-16.74q5.79-6.81,13.9-6.8,6.5,0,8.73,4.16t2.23,12.68v63.12q0,8.325-2.13,11.47c-1.42,2.1-3.96,3.14-7.61,3.14v4.26q19.485-.81,25.17-0.81,6.09,0,25.58.81v-4.26q-6.705,0-9.24-3.14t-2.54-11.47v-58.25a27.122,27.122,0,0,1,6.6-15.42q5.58-6.285,13.09-6.29,7.11,0,9.64,4.16,2.55,4.155,2.54,12.68v63.12q0,8.52-2.13,11.57t-7.61,3.04v4.26q19.485-.81,25.17-0.81,6.5,0,26.79.81v-4.26q-7.11,0-10.05-3.14t-2.94-11.47h0ZM1689.9,7790.61q-10.455.345-35.78,0.35t-35.9-.35q0.81,11.04.81,19.75,0,5.46-.35,8.83h2.67a64.564,64.564,0,0,1,4.77-15.4q2.79-5.625,6.68-8.07a17.438,17.438,0,0,1,9.47-2.44h2.55v66.33a18.788,18.788,0,0,1-.98,7.09,5.292,5.292,0,0,1-3.49,2.96,31.888,31.888,0,0,1-7.96.87v2.33q13.95-.36,21.26-0.35,7.44,0,22.08.35v-2.33a31.888,31.888,0,0,1-7.96-.87,5.23,5.23,0,0,1-3.48-2.96,18.547,18.547,0,0,1-.99-7.09v-66.33h2.67q8.37,0,13.19,5.81t7.61,20.1h2.67q-0.345-3.375-.35-8.83,0-8.715.81-19.75h0Zm45.78,20.56a15.514,15.514,0,0,0-9.41,3.08,19.645,19.645,0,0,0-6.39,8.07v-10.8a73.19,73.19,0,0,1-16.96,1.63q-3.5,0-7.21-.35v2.44q4.185,0,5.81,2.44c1.09,1.62,1.63,4.22,1.63,7.78v36.59q0,4.77-1.63,6.57t-5.81,1.8v2.44a18.768,18.768,0,0,0,2.33-.12q11.145-.345,14.29-0.35,3.945,0,15.8.35a24.3,24.3,0,0,0,2.67.12v-2.44q-5.685,0-8.3-2.09t-2.62-7.44v-30.78a17.074,17.074,0,0,1,3.08-9.53q3.075-4.65,7.5-5.34a5.8,5.8,0,0,1,1.85-.24,6.058,6.058,0,0,1,1.4.12q-5.115,3.48-5.11,9.06a6.8,6.8,0,0,0,2.32,5.4,9.17,9.17,0,0,0,6.27,2.04,8.5,8.5,0,0,0,6.57-2.73,10.045,10.045,0,0,0,2.5-7.03,11.22,11.22,0,0,0-2.68-7.55q-2.67-3.135-7.9-3.14h0Zm29.63,62.5q11.265,0,17.08-9.41a9.655,9.655,0,0,0,2.67,6.85q2.565,2.565,8.95,2.56a19.44,19.44,0,0,0,12.78-4.3l-1.16-1.97q-2.445,1.965-4.18,1.97a2.011,2.011,0,0,1-2.04-1.16,10.5,10.5,0,0,1-.52-3.95v-31.6a46.366,46.366,0,0,0-.87-10.11,12.887,12.887,0,0,0-3.43-6.27,15.554,15.554,0,0,0-6.97-3.95,37.368,37.368,0,0,0-9.88-1.16,45.071,45.071,0,0,0-10.05,1.05,26.534,26.534,0,0,0-7.72,2.9,15.51,15.51,0,0,0-4.82,4.24,10.429,10.429,0,0,0,.63,11.91,7.862,7.862,0,0,0,6.28,2.55,9.556,9.556,0,0,0,6.5-2.32,7.867,7.867,0,0,0,2.68-6.27,8.661,8.661,0,0,0-1.8-5.46,10.885,10.885,0,0,0-5.06-3.49q2.91-2.79,8.48-2.79,4.77,0,7.03,2.73t2.27,7.61v9.06a5.535,5.535,0,0,1-2.96,4.94,51.929,51.929,0,0,1-9.36,4.01,96.049,96.049,0,0,0-9.93,3.95,18.556,18.556,0,0,0-6.62,5.29,13.424,13.424,0,0,0-2.73,8.65,14.046,14.046,0,0,0,3.66,10.11q3.66,3.825,11.09,3.83h0Zm8.95-7.43a6.607,6.607,0,0,1-5.23-2.27q-1.98-2.265-1.98-7.03,0-5.46,2.33-8.36a28.216,28.216,0,0,1,6.85-5.81q4.53-2.79,5.93-5.11v23.81q-3.375,4.77-7.9,4.77h0Zm81.91-53.09q-5.805,0-11.15-.35v2.32c5.65,0.46,8.48,3.53,8.48,9.18a29.966,29.966,0,0,1-1.86,9.41l-8.37,23-13.24-35.2a11.5,11.5,0,0,1-.58-2.9q0-2.325,1.68-2.85a21.165,21.165,0,0,1,5.64-.52v-2.44q-7.785.57-15.11,0.58-8.355,0-16.5-.58v2.44a5.614,5.614,0,0,1,3.43,1.27c1.12,0.86,2.23,2.6,3.31,5.23l20.69,51.35c0.85-.08,2.09-0.12,3.71-0.12,1.71,0,2.98.04,3.84,0.12l16.96-47.98a23.723,23.723,0,0,1,3.66-7.03,8.874,8.874,0,0,1,4.36-2.96v-2.32a85.405,85.405,0,0,1-8.95.35h0Zm44.27,51.81a12.926,12.926,0,0,1-7.38-2.33,16.275,16.275,0,0,1-5.58-7.43,33.175,33.175,0,0,1-2.15-12.78q0-3.72.12-5.46h32.65q0-25.785-21.84-25.79-12.9,0-20.68,8.31-7.8,8.3-7.79,23.99,0,15.33,7.26,23.17t19.58,7.84a21.753,21.753,0,0,0,14.93-5.28,27.717,27.717,0,0,0,8.31-12.84l-2.09-.7q-5.82,9.3-15.34,9.3h0Zm-4.88-51.35q4.065,0,6.1,5.98t1.8,15.16h-18.24q0.69-10.8,3.43-15.97t6.91-5.17h0Zm52.98-31.72a74.5,74.5,0,0,1-16.96,1.63c-2.33,0-4.73-.11-7.21-0.35v2.44c2.72,0,4.63.82,5.76,2.44s1.68,4.22,1.68,7.79v66.21q0,4.77-1.68,6.57c-1.13,1.2-3.04,1.8-5.76,1.8v2.44q12.09-.465,16.04-0.47,3.48,0,15.57.47v-2.44q-4.185,0-5.81-1.8t-1.63-6.57v-80.16Z" transform="translate(-1105.34 -7781.91)"/>
</svg>
