<svg xmlns="http://www.w3.org/2000/svg" width="138.5" height="450.88" viewBox="0 0 138.5 450.88">
  <defs>
    <style>
      .cls-1 {
        fill: #231f1c;
        fill-rule: evenodd;
        opacity: 0.05;
      }
    </style>
  </defs>
  <path id="Video.svg" class="cls-1" d="M1535.78,6659.53q0,9.9-.52,21.72h3.47q0.345-7.125,3.48-10.86,3.12-3.735,10.08-3.74,7.815,0,21.2,4.87l57.69,21.37-77.85,30.58a23.877,23.877,0,0,1-8.17,2.08q-3.645,0-4.87-2.77c-0.8-1.86-1.33-4.98-1.56-9.39h-3.47q0.51,8.52.52,26.41,0,15.99-.52,26.41h3.47a9.8,9.8,0,0,1,2.78-5.73q2.61-2.955,8.34-5.21l108.78-44.31q-0.165-1.905-.17-5.91c0-2.78.06-4.8,0.17-6.08l-99.22-36.66q-9.03-3.3-14.08-7.47c-3.35-2.78-5.56-5.62-6.6-8.51h-3.47q0.51,5.2.52,13.2h0Zm-12.17-34.75q0,7.3,3.56,11.55a13.448,13.448,0,0,0,19.64,0q3.57-4.245,3.56-11.55,0-7.29-3.56-11.55a13.448,13.448,0,0,0-19.64,0q-3.555,4.26-3.56,11.55h0Zm42.92-11.99q2.445,9.9,2.44,25.37c0,3.47-.18,7.07-0.52,10.77h3.65q0-6.255,3.64-8.69,3.66-2.43,11.65-2.43h54.74q7.125,0,9.81,2.43c1.8,1.63,2.7,4.52,2.7,8.69h3.65q-0.69-18.765-.7-24.15,0-5.73.7-23.11h-3.65q0,6.09-2.7,8.6-2.685,2.52-9.81,2.52h-75.6Zm72.64-104.07H1522.22q2.445,10.26,2.44,25.37,0,5.2-.53,10.77h3.65q0-6.075,3.65-8.6t11.65-2.52h29.54q-6.6,6.6-6.61,19.29a38.02,38.02,0,0,0,5.3,20.06,35.571,35.571,0,0,0,15.82,13.73q10.515,4.95,25.8,4.95,23.985,0.18,35.89-9.47t11.9-25.97q0-16.68-15.64-22.59h14.95q-2.445-9.9-2.44-25.37c0-3.59.18-7.18,0.52-10.77h-3.65q0,6.255-3.64,8.69-3.66,2.43-11.65,2.43h0Zm14.08,40.48q0,7.995-9.39,12.25-9.375,4.26-30.58,4.09-21.03.165-31.63-4.87t-10.6-14.25q0-8.34,5.91-12.68h60.82a17.935,17.935,0,0,1,11.3,5.3,14.394,14.394,0,0,1,4.17,10.16h0Zm-6.78-109.98a19.358,19.358,0,0,1-3.47,11.04q-3.48,5.115-11.13,8.34-7.635,3.21-19.11,3.21-5.565,0-8.17-.17v-48.83q-38.58,0-38.58,32.67,0,19.29,12.43,30.92,12.42,11.655,35.88,11.65,22.935,0,34.67-10.86t11.73-29.28q0-13.38-7.91-22.33a41.491,41.491,0,0,0-19.2-12.42l-1.04,3.13q13.9,8.685,13.9,22.93h0Zm-76.81,7.3q0-6.075,8.95-9.12t22.68-2.69v27.27q-16.155-1.035-23.89-5.12t-7.74-10.34h0Zm-3.65-88.61q0,19.815,11.39,31.19,11.37,11.385,36.05,11.38t35.97-11.38q11.31-11.385,11.3-31.19,0-19.98-11.3-31.27-11.28-11.3-35.97-11.3-24.675,0-36.05,11.3t-11.39,31.27h0Zm3.48,0q0-7.47,10.77-11.9,10.785-4.425,33.19-4.43,22.425,0,33.11,4.34t10.68,11.99q0,7.47-10.77,11.9t-33.02,4.43q-22.23,0-33.1-4.43t-10.86-11.9h0Z" transform="translate(-1522.22 -6315.34)"/>
</svg>
